<?xml version="1.0" encoding="utf-8"?>
<svg xmlns="http://www.w3.org/2000/svg" viewBox="53.6164 99.8386 244.9766 224.1446" 
    >
    <path
        d="M -886.01 3420.14 C -973.51 3418.64 -1069.509 3417.39 -1153.008 3416.89 C -1262.008 3415.89 -1339.299 3414.39 -1391 3412.02 C -1442.785 3409.642 -1468.878 3406.46 -1475.964 3401.91 C -1492.989 3391.892 -1508.507 3372.88 -1519.802 3350.635 C -1531.005 3328.376 -1538 3302.885 -1538 3279.89 C -1538 3252.898 -1531.015 3227.42 -1518.409 3205.535 C -1505.805 3183.648 -1487.457 3165.378 -1464.972 3152.875 C -1448.995 3144.389 -1435.319 3139.644 -1398.001 3137.39 C -1360.8 3135.14 -1299.975 3135.39 -1189.985 3136.89 C -1123.991 3137.39 -1062.501 3137.14 -1016.7 3136.14 C -970.775 3135.141 -940.69 3133.493 -937.034 3130.898 C -932.65 3128.267 -928.995 3125.632 -927.068 3122.059 C -924.835 3118.667 -924.167 3114.28 -925.66 3108.625 C -928.173 3097.208 -938.828 3080.082 -961.64 3051.771 C -1007.3 2995.14 -1102.006 2893.884 -1281.004 2704.886 C -1339.502 2642.888 -1405.801 2573.64 -1465.3 2512.02 C -1524.8 2450.39 -1577.514 2396.377 -1609.016 2364.875 C -1666.505 2308.385 -1695.481 2279.863 -1712.501 2267.89 C -1720.931 2261.81 -1726.544 2259.711 -1731.062 2260.828 C -1735.717 2261.239 -1739.331 2265.22 -1744.042 2269.934 C -1784.041 2311.934 -1867.5 2402.89 -1958.5 2503.14 C -2049.5 2603.39 -2148 2712.891 -2218 2791.891 C -2264.501 2844.391 -2308.301 2892.89 -2341.3 2928.64 C -2374.289 2964.379 -2396.269 2986.939 -2400.136 2988.942 C -2404.481 2990.423 -2427.812 2991.891 -2463 2993.14 C -2498.3 2994.39 -2545.017 2995.39 -2595.012 2995.89 C -2692.502 2996.39 -2748.255 2995.14 -2781.067 2987.647 C -2797.333 2984.199 -2808.546 2979.014 -2815.819 2971.642 C -2823.181 2964.18 -2827.087 2954.087 -2829.984 2941.95 C -2831.493 2935.919 -2832.5 2836.138 -2833 2680.27 C -2833.5 2524.39 -2833.5 2312.386 -2833 2081.886 L -2830 1242.884 L -2829.944 1242.519 C -2829.608 1240.308 -2827.81 1228.512 -2824.706 1221.824 C -2821.563 1215.276 -2816.194 1209.223 -2811.217 1203.897 C -2806.229 1198.536 -2797.716 1191.928 -2789.95 1189.337 C -2783.114 1187.047 -2766.739 1185.592 -2764.684 1185.41 L -2311.997 1184.89 L -1405.992 1184.89 L -952.1 1186.351 C -950.256 1186.473 -933.729 1187.603 -924.746 1191.308 C -912.656 1196.301 -900.787 1202.87 -891.5 1212.141 C -884.841 1218.772 -879.763 1227.095 -876.503 1235.89 C -872.98 1245.397 -872.105 1264.164 -872.021 1266.031 L -879.021 1785.892 C -881.02 1929.39 -883.52 2061.14 -885.901 2158.02 C -888.27 2254.89 -890.641 2316.842 -892.02 2320.89 C -893.601 2324.861 -896.059 2328.35 -898.77 2330.89 C -901.545 2333.301 -904.481 2334.89 -907.02 2334.89 C -914.023 2334.89 -975.763 2280.137 -1037.5 2222.14 C -1099.298 2164.142 -1161.026 2102.816 -1168.056 2089.783 C -1171.526 2082.516 -1174.002 2054.874 -1175.4 2003.77 C -1176.8 1952.64 -1177 1878.38 -1176 1778.883 C -1175 1644.383 -1174.797 1571.39 -1176.8 1529.89 C -1178.629 1488.429 -1183.155 1478.326 -1191.109 1469.787 C -1200.146 1461.357 -1212.81 1456.885 -1299 1455.27 C -1385.3 1453.641 -1545 1454.89 -1848 1457.89 C -2142.5 1460.39 -2302.497 1461.89 -2391.097 1464.89 C -2479.776 1467.884 -2496.902 1472.319 -2505.967 1480.86 C -2515.002 1488.903 -2520.068 1497.904 -2522.3 1572.39 C -2524.801 1646.89 -2525 1786.89 -2525 2056.89 L -2525 2614.89 L -2457.973 2542.859 C -2439.953 2522.837 -2394.5 2470.89 -2335.8 2403.27 C -2277 2335.64 -2204.993 2252.381 -2133.995 2169.883 C -2063.494 2087.384 -1995.8 2010.39 -1943.6 1952.89 C -1891.502 1895.392 -1855.055 1857.423 -1847.026 1852.906 C -1828.5 1841.896 -1802.787 1836.188 -1776.8 1835.64 C -1750.808 1835.188 -1724.465 1839.915 -1704.945 1849.918 C -1696.92 1853.932 -1680.495 1867.895 -1660.401 1887.27 C -1640.3 1906.64 -1616.491 1931.402 -1593.992 1956.899 C -1524.985 2034.407 -1308.499 2263.391 -1105.8 2475.27 C -903.01 2687.14 -714.627 2881.236 -699.989 2890.911 C -693.487 2895.416 -687.255 2897.884 -681.342 2898.526 C -675.473 2899.113 -669.993 2897.851 -664.971 2894.86 C -658.309 2890.691 -654.492 2878.564 -651.9 2842.271 C -649.27 2805.89 -648.02 2745.38 -647.02 2644.884 L -645.52 2524.894 L -645.496 2525.155 L -645.52 2524.897 C -641.993 2395.918 -640.116 2387.387 -636.704 2378.282 C -628.118 2343.8 -579.666 2330.722 -566.441 2328.52 C -489.538 2324.89 -467.794 2329.143 -450.014 2340.024 C -432.239 2350.915 -414.368 2366.683 -405.017 2394.897 C -398.836 2413.547 -395.263 2428.535 -387.9 2493.64 C -380.562 2558.529 -384.814 2674.39 -385.02 2893.89 C -385.476 3378.838 -410.032 3382.904 -410.032 3382.904 C -417.037 3391.404 -426.525 3399.894 -436.154 3406.893 C -445.77 3413.891 -455.686 3419.403 -463.176 3421.932 C -470.884 3423.911 -497.525 3425.39 -535.02 3426.02 C -572.521 3426.64 -620.52 3426.389 -670.02 3424.89 C -719.52 3423.39 -798.52 3421.64 -886.01 3420.14 Z"
        id="object-0"
        transform="matrix(0.10000000149011612, 0, 0, -0.10000000149011612, 336.9539184570313, 442.47222900390625)" />
</svg>