<?xml version="1.0" encoding="UTF-8"?>
<!DOCTYPE svg PUBLIC "-//W3C//DTD SVG 1.1//EN" "http://www.w3.org/Graphics/SVG/1.1/DTD/svg11.dtd">
<svg xmlns="http://www.w3.org/2000/svg" version="1.1" width="1220px" height="1078px" style="shape-rendering:geometricPrecision; text-rendering:geometricPrecision; image-rendering:optimizeQuality; fill-rule:evenodd; clip-rule:evenodd" xmlns:xlink="http://www.w3.org/1999/xlink">
<g><path style="opacity:0.678" fill="#f5e280" d="M 139.5,14.5 C 141.099,14.2322 142.432,14.5655 143.5,15.5C 140.833,15.8333 138.167,16.1667 135.5,16.5C 114.167,15.1667 92.8333,15.1667 71.5,16.5C 67.19,17.0802 62.8566,17.4135 58.5,17.5C 61.9416,16.2521 65.6083,15.4188 69.5,15C 92.831,14.5 116.164,14.3334 139.5,14.5 Z"/></g>
<g><path style="opacity:0.757" fill="#e7eed6" d="M 139.5,14.5 C 142.362,13.3187 145.362,13.3187 148.5,14.5C 147.081,15.4511 145.415,15.7845 143.5,15.5C 142.432,14.5655 141.099,14.2322 139.5,14.5 Z"/></g>
<g><path style="opacity:0.808" fill="#e8eccd" d="M 567.5,14.5 C 567.5,15.1667 567.167,15.5 566.5,15.5C 564.167,15.5 561.833,15.5 559.5,15.5C 559.5,15.1667 559.5,14.8333 559.5,14.5C 562.026,13.3433 564.693,13.3433 567.5,14.5 Z"/></g>
<g><path style="opacity:0.657" fill="#f4e48a" d="M 904.5,15.5 C 929.328,14.5023 954.328,14.169 979.5,14.5C 980.167,14.5 980.5,14.8333 980.5,15.5C 978.194,15.9926 975.861,16.3259 973.5,16.5C 950.673,15.5025 927.673,15.1692 904.5,15.5 Z"/></g>
<g><path style="opacity:0.663" fill="#e7edd5" d="M 979.5,14.5 C 981.389,13.2584 983.389,13.2584 985.5,14.5C 985.5,14.8333 985.5,15.1667 985.5,15.5C 984.167,15.5 982.833,15.5 981.5,15.5C 981.167,15.5 980.833,15.5 980.5,15.5C 980.5,14.8333 980.167,14.5 979.5,14.5 Z"/></g>
<g><path style="opacity:0.671" fill="#769095" d="M 1147.5,15.5 C 1093.5,15.5 1039.5,15.5 985.5,15.5C 985.5,15.1667 985.5,14.8333 985.5,14.5C 985.435,14.0618 985.601,13.7284 986,13.5C 1039.93,14.1646 1093.76,14.8313 1147.5,15.5 Z"/></g>
<g><path style="opacity:1" fill="#f4d637" d="M 904.5,15.5 C 927.673,15.1692 950.673,15.5025 973.5,16.5C 972.833,16.5 972.5,16.8333 972.5,17.5C 972.167,17.5 971.833,17.5 971.5,17.5C 969.708,17.366 968.042,17.6993 966.5,18.5C 957.023,17.1681 947.19,16.5014 937,16.5C 927.167,16.6667 917.333,16.8333 907.5,17C 899.396,18.3277 891.396,19.8277 883.5,21.5C 890.066,18.3153 897.066,16.3153 904.5,15.5 Z"/></g>
<g><path style="opacity:1" fill="#1d5069" d="M 981.5,15.5 C 982.833,15.5 984.167,15.5 985.5,15.5C 1039.5,15.5 1093.5,15.5 1147.5,15.5C 1151.76,15.3442 1155.76,16.0109 1159.5,17.5C 1101.18,16.3654 1042.85,16.1987 984.5,17C 984.167,17.3333 983.833,17.6667 983.5,18C 984.833,18.3333 986.167,18.6667 987.5,19C 985.699,19.3173 985.366,19.984 986.5,21C 984.167,21.6667 981.833,21.6667 979.5,21C 980.167,20.3333 980.833,19.6667 981.5,19C 978.183,18.5017 974.85,18.335 971.5,18.5C 971.5,18.1667 971.5,17.8333 971.5,17.5C 971.833,17.5 972.167,17.5 972.5,17.5C 975.187,17.6641 977.854,17.4974 980.5,17C 981.056,16.6174 981.389,16.1174 981.5,15.5 Z"/></g>
<g><path style="opacity:1" fill="#fdd501" d="M 71.5,16.5 C 90.1696,16.3334 108.836,16.5001 127.5,17C 125.048,17.2895 122.715,17.9562 120.5,19C 121.167,19.3333 121.833,19.6667 122.5,20C 120.888,20.7203 119.388,20.5536 118,19.5C 116.796,20.8586 115.296,21.8586 113.5,22.5C 113.709,23.086 114.043,23.586 114.5,24C 113.216,24.6838 112.049,24.5171 111,23.5C 110.51,24.7932 110.343,26.1266 110.5,27.5C 106.435,31.5594 102.768,35.8927 99.5,40.5C 97.412,42.3356 96.0787,44.6689 95.5,47.5C 94.5,47.5 93.5,47.5 92.5,47.5C 92.762,48.9778 92.4287,50.3112 91.5,51.5C 90.0962,50.0011 89.4296,50.3344 89.5,52.5C 89.8971,53.9857 90.2305,55.4857 90.5,57C 89.1786,61.8755 88.012,66.7088 87,71.5C 86.8308,245.854 86.3308,420.188 85.5,594.5C 88.0985,600.805 89.2652,607.472 89,614.5C 89.3826,615.056 89.8826,615.389 90.5,615.5C 90.5651,618.428 91.2318,621.095 92.5,623.5C 93.1667,625.5 93.8333,627.5 94.5,629.5C 94.5,630.5 94.5,631.5 94.5,632.5C 94.5,633.167 94.5,633.833 94.5,634.5C 94.8726,640.589 95.8726,646.589 97.5,652.5C 99.3779,657.333 101.378,662 103.5,666.5C 103.5,667.167 103.833,667.5 104.5,667.5C 105.612,672.189 107.279,676.522 109.5,680.5C 109.5,681.167 109.5,681.833 109.5,682.5C 109.427,684.027 110.094,685.027 111.5,685.5C 111.5,686.167 111.5,686.833 111.5,687.5C 111.427,689.027 112.094,690.027 113.5,690.5C 113.5,691.167 113.5,691.833 113.5,692.5C 113.427,694.027 114.094,695.027 115.5,695.5C 116.421,699.299 118.088,702.632 120.5,705.5C 120.948,708.682 122.282,711.349 124.5,713.5C 124.328,714.492 124.662,715.158 125.5,715.5C 126.167,717.5 126.833,719.5 127.5,721.5C 127.763,725.686 129.429,729.019 132.5,731.5C 132.5,731.833 132.5,732.167 132.5,732.5C 132.986,734.807 132.986,736.973 132.5,739C 134.125,739.853 134.458,740.853 133.5,742C 134.449,742.617 135.282,742.451 136,741.5C 137.514,744.527 139.014,747.527 140.5,750.5C 139.833,752.167 139.167,753.833 138.5,755.5C 140.326,755.92 142.326,755.92 144.5,755.5C 145.338,755.842 145.672,756.508 145.5,757.5C 145.427,759.027 146.094,760.027 147.5,760.5C 147.5,760.833 147.5,761.167 147.5,761.5C 148.167,763.167 148.833,764.833 149.5,766.5C 149.585,771.076 151.585,774.409 155.5,776.5C 156.84,779.529 158.173,782.529 159.5,785.5C 159.427,787.027 160.094,788.027 161.5,788.5C 161.5,788.833 161.5,789.167 161.5,789.5C 161.427,791.027 162.094,792.027 163.5,792.5C 164.441,794.05 165.107,795.716 165.5,797.5C 165.427,799.027 166.094,800.027 167.5,800.5C 167.75,802.674 168.75,804.341 170.5,805.5C 170.5,805.833 170.5,806.167 170.5,806.5C 172.367,810.112 174.034,813.779 175.5,817.5C 175.427,819.027 176.094,820.027 177.5,820.5C 177.5,820.833 177.5,821.167 177.5,821.5C 177.427,823.027 178.094,824.027 179.5,824.5C 180.441,826.05 181.107,827.716 181.5,829.5C 181.427,831.027 182.094,832.027 183.5,832.5C 184.833,835.5 186.167,838.5 187.5,841.5C 188.11,843.434 189.11,845.101 190.5,846.5C 191.773,848.713 192.773,851.046 193.5,853.5C 193.427,855.027 194.094,856.027 195.5,856.5C 195.5,856.833 195.5,857.167 195.5,857.5C 195.427,859.027 196.094,860.027 197.5,860.5C 198.167,862.167 198.833,863.833 199.5,865.5C 201.597,870.032 203.931,874.365 206.5,878.5C 207.11,879.391 207.443,880.391 207.5,881.5C 207.427,883.027 208.094,884.027 209.5,884.5C 210.421,888.299 212.088,891.632 214.5,894.5C 214.833,895.167 215.167,895.833 215.5,896.5C 216.645,900.124 218.312,903.457 220.5,906.5C 220.833,907.167 221.167,907.833 221.5,908.5C 223.15,912.776 225.15,916.776 227.5,920.5C 227.5,920.833 227.5,921.167 227.5,921.5C 228.11,923.434 229.11,925.101 230.5,926.5C 231.441,928.05 232.107,929.716 232.5,931.5C 233.656,935.243 234.656,939.077 235.5,943C 235.167,943.333 234.833,943.667 234.5,944C 236.671,945.174 237.671,947.007 237.5,949.5C 238.5,949.5 239.5,949.5 240.5,949.5C 241.298,954.434 243.631,958.434 247.5,961.5C 248.279,964.545 249.613,967.211 251.5,969.5C 251.5,969.833 251.5,970.167 251.5,970.5C 251.767,975.187 253.767,978.853 257.5,981.5C 257.5,981.833 257.5,982.167 257.5,982.5C 257.427,984.027 258.094,985.027 259.5,985.5C 260.454,988.706 261.787,991.706 263.5,994.5C 263.557,995.609 263.89,996.609 264.5,997.5C 266.429,1001.56 267.929,1005.9 269,1010.5C 270.47,1011.27 271.97,1011.93 273.5,1012.5C 275.817,1016.15 278.484,1019.48 281.5,1022.5C 282.701,1024.91 284.367,1026.91 286.5,1028.5C 288.167,1030.83 290.167,1032.83 292.5,1034.5C 293.911,1036.91 295.911,1038.58 298.5,1039.5C 300.55,1041.55 302.883,1043.21 305.5,1044.5C 305.973,1045.91 306.973,1046.57 308.5,1046.5C 308.973,1047.91 309.973,1048.57 311.5,1048.5C 313.849,1050.34 316.515,1051.67 319.5,1052.5C 321.936,1053.87 324.603,1054.87 327.5,1055.5C 327.5,1055.83 327.5,1056.17 327.5,1056.5C 328.574,1057.88 329.907,1059.05 331.5,1060C 314.5,1060.67 297.5,1060.67 280.5,1060C 274.593,1058.64 268.593,1058.14 262.5,1058.5C 258.535,1057.41 254.868,1055.58 251.5,1053C 248.173,1052.39 244.839,1051.89 241.5,1051.5C 241.167,1051.5 240.833,1051.5 240.5,1051.5C 240.027,1050.09 239.027,1049.43 237.5,1049.5C 232.678,1048 228.678,1045.34 225.5,1041.5C 224.71,1040.21 223.71,1039.04 222.5,1038C 222.833,1037.67 223.167,1037.33 223.5,1037C 220.706,1036.02 218.039,1034.85 215.5,1033.5C 210.383,1029.72 206.383,1025.06 203.5,1019.5C 200.505,1014.84 198.005,1009.84 196,1004.5C 194.6,1003.25 193.1,1002.25 191.5,1001.5C 189.895,998.622 188.561,995.622 187.5,992.5C 186.798,989.422 185.798,986.422 184.5,983.5C 183.735,982.388 182.735,981.721 181.5,981.5C 179.229,977.291 177.229,972.958 175.5,968.5C 175.656,965.934 175.322,963.434 174.5,961C 171.218,956.908 168.218,952.742 165.5,948.5C 165.5,948.167 165.5,947.833 165.5,947.5C 165.33,946.178 165.663,945.011 166.5,944C 165.584,943.626 164.75,943.126 164,942.5C 161.705,937.643 159.872,932.643 158.5,927.5C 157.5,927.5 156.5,927.5 155.5,927.5C 153.344,918.859 149.844,910.859 145,903.5C 143.356,898.219 141.19,893.219 138.5,888.5C 137.5,888.5 136.5,888.5 135.5,888.5C 135.5,888.167 135.5,887.833 135.5,887.5C 134.908,884.873 134.575,882.206 134.5,879.5C 133.5,879.5 132.5,879.5 131.5,879.5C 130.362,875.196 129.029,870.862 127.5,866.5C 126.476,865.147 125.143,864.48 123.5,864.5C 121.229,860.291 119.229,855.958 117.5,851.5C 117.067,848.834 116.567,846.168 116,843.5C 112.644,836.961 109.478,830.295 106.5,823.5C 105.5,823.5 104.5,823.5 103.5,823.5C 99.2353,817.421 95.902,810.755 93.5,803.5C 91.3412,797.849 88.6745,792.516 85.5,787.5C 84.7564,783.881 84.423,780.215 84.5,776.5C 83.448,776.649 82.448,776.483 81.5,776C 82.6956,775.346 82.6956,774.846 81.5,774.5C 80.8165,774.863 80.1499,775.196 79.5,775.5C 79.4527,771.177 78.4527,767.177 76.5,763.5C 75.5,763.5 74.5,763.5 73.5,763.5C 73.5,760.833 73.5,758.167 73.5,755.5C 72.5,755.5 71.5,755.5 70.5,755.5C 69.8244,752.135 68.1577,749.469 65.5,747.5C 64.3263,746.486 63.6596,745.153 63.5,743.5C 63.6621,741.473 63.4955,739.473 63,737.5C 62.1841,736.177 61.0174,735.511 59.5,735.5C 58.8333,734.167 58.1667,732.833 57.5,731.5C 57.3828,724.692 54.7161,719.359 49.5,715.5C 48.333,709.947 46.6663,704.613 44.5,699.5C 43.5,699.5 42.5,699.5 41.5,699.5C 39.6092,696.386 38.2759,693.052 37.5,689.5C 37.4824,686.079 36.149,683.412 33.5,681.5C 33.2436,679.208 33.5769,677.041 34.5,675C 32.9379,673.366 31.2713,671.866 29.5,670.5C 29.5,670.167 29.5,669.833 29.5,669.5C 29.2606,667.533 29.5939,665.699 30.5,664C 28.7092,662.229 27.0425,660.396 25.5,658.5C 25.5,658.167 25.5,657.833 25.5,657.5C 25.8893,654.447 25.2227,651.78 23.5,649.5C 24.1303,643.822 22.797,638.822 19.5,634.5C 19.5,634.167 19.5,633.833 19.5,633.5C 19.5,632.167 19.5,630.833 19.5,629.5C 17.4933,616.917 15.9933,604.25 15,591.5C 14.3333,419.167 14.3333,246.833 15,74.5C 16.4457,69.3548 16.9457,64.0214 16.5,58.5C 19.0872,52.9852 21.4205,47.3186 23.5,41.5C 31.5229,28.312 43.1895,20.312 58.5,17.5C 62.8566,17.4135 67.19,17.0802 71.5,16.5 Z"/></g>
<g><path style="opacity:1" fill="#3c5e40" d="M 143.5,15.5 C 143.38,16.5862 142.713,17.2528 141.5,17.5C 135.641,18.0973 129.974,19.4306 124.5,21.5C 127.891,19.2572 131.558,17.5905 135.5,16.5C 138.167,16.1667 140.833,15.8333 143.5,15.5 Z"/></g>
<g><path style="opacity:1" fill="#115074" d="M 148.5,14.5 C 202.572,14.1713 256.572,14.5046 310.5,15.5C 310.441,17.7645 311.274,18.0978 313,16.5C 314.61,18.4887 316.443,18.8221 318.5,17.5C 322.622,17.4861 325.122,19.4861 326,23.5C 328.666,23.2476 331.499,22.5809 334.5,21.5C 350.888,28.5881 360.888,40.9214 364.5,58.5C 364.445,64.9552 365.112,71.2885 366.5,77.5C 366.333,227.5 366.5,377.5 367,527.5C 367.996,530.909 368.829,534.242 369.5,537.5C 372.107,554.205 375.44,570.539 379.5,586.5C 379.41,589.152 380.076,591.485 381.5,593.5C 386.7,608.082 392.7,622.415 399.5,636.5C 399.5,637.167 399.5,637.833 399.5,638.5C 399.755,640.967 400.755,642.967 402.5,644.5C 403.338,644.842 403.672,645.508 403.5,646.5C 404.878,652.26 407.545,657.26 411.5,661.5C 411.5,661.833 411.5,662.167 411.5,662.5C 411.427,664.027 412.094,665.027 413.5,665.5C 413.5,665.833 413.5,666.167 413.5,666.5C 413.468,670.8 415.135,674.133 418.5,676.5C 418.53,679.852 419.863,682.518 422.5,684.5C 422.616,688.317 421.616,691.817 419.5,695C 419.833,695.833 420.167,696.667 420.5,697.5C 421.167,696.167 421.833,694.833 422.5,693.5C 423.816,696.028 424.983,696.028 426,693.5C 426.192,695.577 426.692,697.577 427.5,699.5C 428.417,700.127 429.417,700.461 430.5,700.5C 430.292,704.085 431.625,706.751 434.5,708.5C 435.338,708.842 435.672,709.508 435.5,710.5C 436.455,712.71 437.955,713.043 440,711.5C 443.688,705.132 446.521,698.466 448.5,691.5C 449.5,691.5 450.5,691.5 451.5,691.5C 453.453,687.823 454.453,683.823 454.5,679.5C 456.074,679.063 457.241,678.063 458,676.5C 458.44,674.134 458.94,671.801 459.5,669.5C 459.992,667.181 460.992,665.181 462.5,663.5C 465.708,661.926 467.042,659.259 466.5,655.5C 469.708,653.926 471.042,651.259 470.5,647.5C 471.458,647.047 472.292,646.381 473,645.5C 475.46,640.618 477.627,635.618 479.5,630.5C 481.915,627.66 483.248,624.327 483.5,620.5C 483.5,620.167 483.5,619.833 483.5,619.5C 485.614,618.093 487.114,616.093 488,613.5C 489.517,607.811 491.017,602.144 492.5,596.5C 493.511,593.06 494.511,589.726 495.5,586.5C 496.924,584.485 497.59,582.152 497.5,579.5C 497.232,577.901 497.566,576.568 498.5,575.5C 500.369,573.365 501.036,570.698 500.5,567.5C 500.5,567.167 500.5,566.833 500.5,566.5C 502.876,561.894 503.876,556.894 503.5,551.5C 504.309,549.972 504.976,548.306 505.5,546.5C 506.166,541.651 506.833,536.651 507.5,531.5C 508.333,377.834 508.833,224.168 509,70.5C 511.067,62.8554 512.9,55.1887 514.5,47.5C 516.635,45.2523 518.302,42.5856 519.5,39.5C 519.427,37.9731 520.094,36.9731 521.5,36.5C 525.252,33.9587 528.585,30.9587 531.5,27.5C 534.93,26.8775 537.596,25.2108 539.5,22.5C 543.325,21.926 546.991,20.7594 550.5,19C 554.5,18.6667 558.5,18.3333 562.5,18C 563.858,17.0656 565.192,16.2323 566.5,15.5C 567.167,15.5 567.5,15.1667 567.5,14.5C 621.168,14.3333 674.834,14.5 728.5,15C 734.365,15.3844 740.031,16.551 745.5,18.5C 746.918,20.3079 748.918,20.9746 751.5,20.5C 754.992,21.4097 757.992,23.0764 760.5,25.5C 760.577,26.7498 761.244,27.5831 762.5,28C 757.502,28.4276 757.335,29.2609 762,30.5C 762.333,30.1667 762.667,29.8333 763,29.5C 764.204,30.8586 765.704,31.8586 767.5,32.5C 768.415,33.3279 769.081,34.3279 769.5,35.5C 768.772,37.1547 768.605,38.8214 769,40.5C 769.388,39.572 770.055,38.9054 771,38.5C 773.375,41.044 775.875,43.3774 778.5,45.5C 778.289,49.6728 779.456,53.3394 782,56.5C 782.195,61.4179 782.695,66.2512 783.5,71C 782.346,71.9138 782.513,72.7471 784,73.5C 784.333,222.167 784.667,370.833 785,519.5C 784.947,522.675 785.78,525.342 787.5,527.5C 788.295,531.785 788.628,536.119 788.5,540.5C 788.216,542.415 788.549,544.081 789.5,545.5C 791.274,554.475 792.94,563.475 794.5,572.5C 794.294,575.495 794.96,578.162 796.5,580.5C 801.883,599.602 809.217,617.936 818.5,635.5C 818.5,636.833 818.5,638.167 818.5,639.5C 818.678,642.216 819.178,644.883 820,647.5C 822.863,650.32 825.363,653.32 827.5,656.5C 827.833,659.167 828.167,661.833 828.5,664.5C 829.5,664.5 830.5,664.5 831.5,664.5C 831.462,667.181 832.129,669.681 833.5,672C 833.265,672.873 832.931,673.707 832.5,674.5C 837.447,677.787 840.28,682.454 841,688.5C 845.02,696.553 849.52,704.22 854.5,711.5C 855.183,713.176 856.517,713.843 858.5,713.5C 858.5,712.167 858.5,710.833 858.5,709.5C 861.708,707.926 863.042,705.259 862.5,701.5C 865.715,699.893 867.049,697.226 866.5,693.5C 867.794,692.71 868.961,691.71 870,690.5C 871.14,687.898 871.973,685.231 872.5,682.5C 873.11,681.609 873.443,680.609 873.5,679.5C 873.5,679.167 873.5,678.833 873.5,678.5C 875.343,677.754 876.676,676.421 877.5,674.5C 880.016,669.669 882.016,664.669 883.5,659.5C 883.5,659.167 883.5,658.833 883.5,658.5C 887.25,656.269 888.917,652.936 888.5,648.5C 890.408,647.514 891.408,645.848 891.5,643.5C 891.328,642.508 891.662,641.842 892.5,641.5C 895.496,638.503 897.163,634.836 897.5,630.5C 898.15,630.196 898.817,629.863 899.5,629.5C 900.59,626.122 901.59,622.789 902.5,619.5C 905.639,616.297 907.306,612.297 907.5,607.5C 909.074,605.898 909.741,603.898 909.5,601.5C 909.328,600.508 909.662,599.842 910.5,599.5C 911.693,599.03 912.36,598.03 912.5,596.5C 913.38,593.198 914.046,589.865 914.5,586.5C 917.995,582.232 919.329,577.232 918.5,571.5C 919.222,571.082 919.722,570.416 920,569.5C 920.497,566.854 920.664,564.187 920.5,561.5C 921.989,559.884 922.989,557.884 923.5,555.5C 924.493,550.88 924.827,546.214 924.5,541.5C 926.293,531.611 926.96,521.611 926.5,511.5C 927.333,367.334 927.833,223.001 928,78.5C 928.346,72.143 928.846,65.8097 929.5,59.5C 929.5,58.8333 929.5,58.1667 929.5,57.5C 932.548,53.3919 934.548,48.7252 935.5,43.5C 935.427,41.9731 936.094,40.9731 937.5,40.5C 940.805,36.8592 944.138,33.1925 947.5,29.5C 949.749,28.9202 951.415,27.5869 952.5,25.5C 954.848,25.4077 956.514,24.4077 957.5,22.5C 962.207,21.3761 966.874,20.0428 971.5,18.5C 974.85,18.335 978.183,18.5017 981.5,19C 980.833,19.6667 980.167,20.3333 979.5,21C 981.833,21.6667 984.167,21.6667 986.5,21C 985.366,19.984 985.699,19.3173 987.5,19C 986.167,18.6667 984.833,18.3333 983.5,18C 983.833,17.6667 984.167,17.3333 984.5,17C 1042.85,16.1987 1101.18,16.3654 1159.5,17.5C 1169.7,19.4335 1178.7,23.7668 1186.5,30.5C 1185.89,33.9694 1187.22,35.9694 1190.5,36.5C 1190.67,37.8221 1190.34,38.9887 1189.5,40C 1192.74,40.9598 1194.74,43.1265 1195.5,46.5C 1195.18,47.6473 1194.52,48.4806 1193.5,49C 1196.06,49.643 1198.39,51.143 1200.5,53.5C 1201.92,55.5145 1202.59,57.8478 1202.5,60.5C 1203.83,242.163 1203.83,423.829 1202.5,605.5C 1202.5,607.833 1202.5,610.167 1202.5,612.5C 1202.37,616.952 1201.7,621.286 1200.5,625.5C 1199.78,625.082 1199.28,624.416 1199,623.5C 1198.67,626.833 1198.33,630.167 1198,633.5C 1197.33,634.167 1196.67,634.833 1196,635.5C 1195.5,639.486 1195.33,643.486 1195.5,647.5C 1194.28,654.695 1192.28,661.695 1189.5,668.5C 1181.94,689.637 1172.61,710.304 1161.5,730.5C 1159.99,729.272 1158.49,729.272 1157,730.5C 1156.67,729.833 1156.33,729.167 1156,728.5C 1155.73,730.101 1155.23,731.601 1154.5,733C 1155.45,733.617 1156.28,733.451 1157,732.5C 1156.19,736.623 1154.69,740.623 1152.5,744.5C 1151.53,746.396 1151.2,748.396 1151.5,750.5C 1148.27,752.951 1146.61,756.284 1146.5,760.5C 1145.67,763.485 1144.34,766.151 1142.5,768.5C 1140.9,769.09 1139.57,770.09 1138.5,771.5C 1137.08,775.086 1136.08,778.753 1135.5,782.5C 1133.09,783.68 1132.09,785.68 1132.5,788.5C 1132.34,790.153 1131.67,791.486 1130.5,792.5C 1129.85,792.196 1129.18,791.863 1128.5,791.5C 1127.69,793.423 1127.19,795.423 1127,797.5C 1126.55,795.071 1125.72,794.904 1124.5,797C 1124.83,797.333 1125.17,797.667 1125.5,798C 1124.33,798.419 1123.33,799.085 1122.5,800C 1122.83,802.685 1122.83,805.518 1122.5,808.5C 1122.01,810.819 1121.01,812.819 1119.5,814.5C 1118.17,814.5 1116.83,814.5 1115.5,814.5C 1115.31,818.64 1114.64,822.64 1113.5,826.5C 1112.25,826.577 1111.42,827.244 1111,828.5C 1110.33,827.167 1109.67,825.833 1109,824.5C 1108.5,825 1108,825.5 1107.5,826C 1108.43,827.194 1109.1,828.527 1109.5,830C 1107.47,833.221 1106.47,836.721 1106.5,840.5C 1104.09,841.68 1103.09,843.68 1103.5,846.5C 1103.5,846.833 1103.5,847.167 1103.5,847.5C 1102.6,848.29 1101.93,849.29 1101.5,850.5C 1103.03,851.925 1102.7,852.591 1100.5,852.5C 1098.59,852.574 1097.42,853.574 1097,855.5C 1095.33,854.66 1095.17,855.16 1096.5,857C 1094.57,860.559 1093.24,864.392 1092.5,868.5C 1086.01,882.818 1079.01,896.818 1071.5,910.5C 1070.78,910.082 1070.28,909.416 1070,908.5C 1068.68,910.25 1068.18,912.25 1068.5,914.5C 1064.65,914.194 1063.31,915.694 1064.5,919C 1063.9,923.321 1062.23,927.154 1059.5,930.5C 1059.86,931.183 1060.2,931.85 1060.5,932.5C 1053.26,948.395 1045.6,964.062 1037.5,979.5C 1035.31,981.598 1032.98,983.598 1030.5,985.5C 1031.73,987.398 1031.4,989.065 1029.5,990.5C 1028.52,990.023 1027.69,989.357 1027,988.5C 1027.93,990.582 1028.43,992.915 1028.5,995.5C 1027.5,995.5 1026.5,995.5 1025.5,995.5C 1025.52,997.565 1025.85,999.565 1026.5,1001.5C 1023.22,1002.03 1021.89,1004.03 1022.5,1007.5C 1021.13,1007.34 1019.79,1007.51 1018.5,1008C 1019.7,1008.65 1019.7,1009.15 1018.5,1009.5C 1016.67,1009.74 1015,1009.24 1013.5,1008C 1015.52,1010.64 1015.86,1013.47 1014.5,1016.5C 1013.55,1014.95 1013.21,1013.29 1013.5,1011.5C 1012.17,1011.5 1010.83,1011.5 1009.5,1011.5C 1009.5,1012.83 1009.5,1014.17 1009.5,1015.5C 1010.5,1015.5 1011.5,1015.5 1012.5,1015.5C 1010.98,1018.59 1010.32,1021.92 1010.5,1025.5C 1009.4,1027.39 1008.06,1029.06 1006.5,1030.5C 1005.5,1030.83 1004.83,1031.5 1004.5,1032.5C 1002.91,1033.15 1001.25,1033.65 999.5,1034C 999.833,1034.33 1000.17,1034.67 1000.5,1035C 998.527,1035.5 996.527,1035.66 994.5,1035.5C 994.5,1036.83 994.5,1038.17 994.5,1039.5C 991.167,1039.5 989.5,1041.17 989.5,1044.5C 985.633,1044.85 982.133,1046.18 979,1048.5C 975.208,1049.31 971.375,1049.64 967.5,1049.5C 967.5,1051.17 967.5,1052.83 967.5,1054.5C 964.083,1054.02 961.416,1055.02 959.5,1057.5C 957.143,1057.34 954.81,1057.5 952.5,1058C 951.058,1058.38 950.058,1059.21 949.5,1060.5C 944.87,1061.23 940.203,1061.56 935.5,1061.5C 881.167,1061.5 826.833,1061.5 772.5,1061.5C 772.389,1060.88 772.056,1060.38 771.5,1060C 767.23,1058.92 762.897,1058.42 758.5,1058.5C 755.572,1058.43 752.905,1057.77 750.5,1056.5C 750.389,1055.88 750.056,1055.38 749.5,1055C 747.134,1054.56 744.801,1054.06 742.5,1053.5C 740.815,1051.18 738.481,1050.18 735.5,1050.5C 734.813,1046.81 732.813,1045.81 729.5,1047.5C 729.178,1045.28 729.845,1043.44 731.5,1042C 730.692,1041.69 730.025,1041.19 729.5,1040.5C 725.925,1039.19 725.592,1040.03 728.5,1043C 725.69,1045.18 723.69,1044.51 722.5,1041C 720.846,1040.39 719.179,1039.89 717.5,1039.5C 715.761,1036.76 713.427,1034.76 710.5,1033.5C 707.5,1031.17 704.833,1028.5 702.5,1025.5C 701.753,1022.64 700.086,1020.64 697.5,1019.5C 697.5,1019.17 697.5,1018.83 697.5,1018.5C 696.225,1015.87 694.892,1013.2 693.5,1010.5C 692.735,1009.39 691.735,1008.72 690.5,1008.5C 688.848,1002.53 686.181,997.195 682.5,992.5C 682.167,992.5 681.833,992.5 681.5,992.5C 681.5,992.167 681.5,991.833 681.5,991.5C 680.453,985.747 678.12,980.747 674.5,976.5C 674.727,974.067 673.727,972.401 671.5,971.5C 671.5,971.167 671.5,970.833 671.5,970.5C 671.573,968.973 670.906,967.973 669.5,967.5C 669.573,965.973 668.906,964.973 667.5,964.5C 667.5,964.167 667.5,963.833 667.5,963.5C 667.573,961.973 666.906,960.973 665.5,960.5C 665.5,960.167 665.5,959.833 665.5,959.5C 665.573,957.973 664.906,956.973 663.5,956.5C 663.5,956.167 663.5,955.833 663.5,955.5C 663.463,952.047 662.129,949.381 659.5,947.5C 659.345,944.132 658.012,941.465 655.5,939.5C 654.18,936.86 652.847,934.193 651.5,931.5C 651.573,929.973 650.906,928.973 649.5,928.5C 649.5,928.167 649.5,927.833 649.5,927.5C 649.489,925.983 648.823,924.816 647.5,924C 646.184,923.472 645.517,923.972 645.5,925.5C 644.143,926.59 643.143,927.924 642.5,929.5C 641.265,929.721 640.265,930.388 639.5,931.5C 637.719,937.288 635.052,942.621 631.5,947.5C 630.534,949.396 630.201,951.396 630.5,953.5C 628.983,953.511 627.816,954.177 627,955.5C 626.505,957.473 626.338,959.473 626.5,961.5C 623.285,963.107 621.951,965.774 622.5,969.5C 622.167,970.833 621.833,972.167 621.5,973.5C 620.833,974.833 620.167,976.167 619.5,977.5C 618.094,977.973 617.427,978.973 617.5,980.5C 616.094,980.973 615.427,981.973 615.5,983.5C 615.5,984.167 615.5,984.833 615.5,985.5C 614.094,985.973 613.427,986.973 613.5,988.5C 613.5,988.833 613.5,989.167 613.5,989.5C 612.313,991.072 611.313,992.739 610.5,994.5C 605.745,1000.58 601.412,1006.91 597.5,1013.5C 596.548,1015.05 596.215,1016.71 596.5,1018.5C 593.221,1019.03 591.887,1021.03 592.5,1024.5C 590.212,1028.46 587.212,1031.79 583.5,1034.5C 582.167,1035.17 581.167,1036.17 580.5,1037.5C 577.725,1040.6 574.392,1042.94 570.5,1044.5C 568.167,1044.5 565.833,1044.5 563.5,1044.5C 563.634,1046.29 563.301,1047.96 562.5,1049.5C 551.448,1055.93 539.448,1059.6 526.5,1060.5C 525.209,1060.26 524.209,1060.6 523.5,1061.5C 521.167,1061.5 518.833,1061.5 516.5,1061.5C 461.5,1061.5 406.5,1061.5 351.5,1061.5C 350.167,1060.83 348.833,1060.17 347.5,1059.5C 340.995,1058.02 334.328,1056.68 327.5,1055.5C 326.41,1054.14 325.076,1053.14 323.5,1052.5C 322.637,1051.06 322.637,1049.73 323.5,1048.5C 322.311,1047.57 320.978,1047.24 319.5,1047.5C 319.5,1048.5 319.5,1049.5 319.5,1050.5C 318.5,1050.5 317.5,1050.5 316.5,1050.5C 316.5,1049.5 316.5,1048.5 316.5,1047.5C 314.435,1047.48 312.435,1047.15 310.5,1046.5C 309.833,1046.5 309.167,1046.5 308.5,1046.5C 308.027,1045.09 307.027,1044.43 305.5,1044.5C 302.883,1043.21 300.55,1041.55 298.5,1039.5C 297.089,1037.09 295.089,1035.42 292.5,1034.5C 290.167,1032.83 288.167,1030.83 286.5,1028.5C 285.753,1025.64 284.086,1023.64 281.5,1022.5C 280.351,1019.96 280.351,1017.46 281.5,1015C 279.833,1014.67 278.167,1014.33 276.5,1014C 275.421,1012.14 274.088,1010.64 272.5,1009.5C 270.47,1007.1 268.803,1004.44 267.5,1001.5C 267.443,1000.39 267.11,999.391 266.5,998.5C 266.785,996.712 266.452,995.045 265.5,993.5C 263.622,990.699 261.622,988.032 259.5,985.5C 259.573,983.973 258.906,982.973 257.5,982.5C 257.5,982.167 257.5,981.833 257.5,981.5C 256.241,977.353 254.241,973.686 251.5,970.5C 251.5,970.167 251.5,969.833 251.5,969.5C 251.463,966.047 250.129,963.381 247.5,961.5C 246.833,959.833 246.167,958.167 245.5,956.5C 245.573,954.973 244.906,953.973 243.5,953.5C 243.107,951.716 242.441,950.05 241.5,948.5C 241.573,946.973 240.906,945.973 239.5,945.5C 239.443,944.391 239.11,943.391 238.5,942.5C 238.262,940.596 237.262,939.262 235.5,938.5C 234.912,935.937 233.912,933.604 232.5,931.5C 232.107,929.716 231.441,928.05 230.5,926.5C 230.727,924.067 229.727,922.401 227.5,921.5C 227.5,921.167 227.5,920.833 227.5,920.5C 226.373,916.52 225.373,912.52 224.5,908.5C 223.5,908.5 222.5,908.5 221.5,908.5C 221.167,907.833 220.833,907.167 220.5,906.5C 219.87,903.418 218.87,900.418 217.5,897.5C 216.817,897.137 216.15,896.804 215.5,896.5C 215.167,895.833 214.833,895.167 214.5,894.5C 213.38,891.613 212.38,888.613 211.5,885.5C 210.817,885.137 210.15,884.804 209.5,884.5C 209.573,882.973 208.906,881.973 207.5,881.5C 207.443,880.391 207.11,879.391 206.5,878.5C 205.805,873.255 203.472,868.921 199.5,865.5C 198.833,863.833 198.167,862.167 197.5,860.5C 197.573,858.973 196.906,857.973 195.5,857.5C 195.5,857.167 195.5,856.833 195.5,856.5C 195.573,854.973 194.906,853.973 193.5,853.5C 192.773,851.046 191.773,848.713 190.5,846.5C 190.5,845.5 190.5,844.5 190.5,843.5C 191.15,841.565 191.483,839.565 191.5,837.5C 188.5,837.833 187.167,836.5 187.5,833.5C 186.5,833.5 185.5,833.5 184.5,833.5C 184.357,831.738 184.691,830.071 185.5,828.5C 183.009,827.459 183.009,826.626 185.5,826C 184.354,825.355 183.354,824.522 182.5,823.5C 181.914,823.709 181.414,824.043 181,824.5C 180.445,821.419 178.945,819.086 176.5,817.5C 175.87,814.418 174.87,811.418 173.5,808.5C 172.735,807.388 171.735,806.721 170.5,806.5C 170.5,806.167 170.5,805.833 170.5,805.5C 170.759,803.011 169.759,801.344 167.5,800.5C 167.573,798.973 166.906,797.973 165.5,797.5C 165.107,795.716 164.441,794.05 163.5,792.5C 163.573,790.973 162.906,789.973 161.5,789.5C 161.5,789.167 161.5,788.833 161.5,788.5C 161.443,787.391 161.11,786.391 160.5,785.5C 160.56,782.979 159.894,780.646 158.5,778.5C 158.608,777.558 158.941,776.725 159.5,776C 158.141,774.796 157.141,773.296 156.5,771.5C 155.914,771.709 155.414,772.043 155,772.5C 154.764,770.881 153.931,769.881 152.5,769.5C 151.662,769.158 151.328,768.492 151.5,767.5C 151.155,764.802 149.822,762.802 147.5,761.5C 147.5,761.167 147.5,760.833 147.5,760.5C 147.443,759.391 147.11,758.391 146.5,757.5C 144.552,751.931 142.885,746.265 141.5,740.5C 140.5,740.5 139.5,740.5 138.5,740.5C 138.715,738.821 138.048,737.821 136.5,737.5C 136.167,737.5 135.833,737.5 135.5,737.5C 135.167,736.167 134.833,734.833 134.5,733.5C 134.127,729.652 132.46,726.652 129.5,724.5C 129.443,723.391 129.11,722.391 128.5,721.5C 128.913,718.68 127.913,716.68 125.5,715.5C 124.662,715.158 124.328,714.492 124.5,713.5C 124.181,710.194 122.847,707.527 120.5,705.5C 119.689,701.399 118.022,697.733 115.5,694.5C 115.167,693.5 114.5,692.833 113.5,692.5C 113.5,691.833 113.5,691.167 113.5,690.5C 113.573,688.973 112.906,687.973 111.5,687.5C 111.5,686.833 111.5,686.167 111.5,685.5C 111.573,683.973 110.906,682.973 109.5,682.5C 109.5,681.833 109.5,681.167 109.5,680.5C 109.27,675.494 107.603,671.16 104.5,667.5C 103.26,662.59 102.427,657.59 102,652.5C 101.051,650.907 99.8846,649.574 98.5,648.5C 98.5,647.833 98.5,647.167 98.5,646.5C 98.2317,643.881 98.565,641.381 99.5,639C 97.449,637.033 95.7823,634.866 94.5,632.5C 94.5,631.5 94.5,630.5 94.5,629.5C 94.9321,626.123 94.2655,623.123 92.5,620.5C 92.5,619.167 92.5,617.833 92.5,616.5C 92.3143,609.972 92.6476,603.472 93.5,597C 93.5463,595.272 93.0463,593.772 92,592.5C 91.2797,594.112 91.4464,595.612 92.5,597C 91.8742,597.75 91.3742,598.584 91,599.5C 90.3333,422.167 90.3333,244.833 91,67.5C 92.4155,64.0418 92.9155,60.3751 92.5,56.5C 94.357,54.7185 95.357,52.3852 95.5,49.5C 97.5918,46.9116 98.9251,43.9116 99.5,40.5C 104.86,35.4721 110.193,30.4721 115.5,25.5C 118.927,24.9498 121.927,23.6165 124.5,21.5C 129.974,19.4306 135.641,18.0973 141.5,17.5C 142.713,17.2528 143.38,16.5862 143.5,15.5C 145.415,15.7845 147.081,15.4511 148.5,14.5 Z"/></g>
<g><path style="opacity:1" fill="#f4d63b" d="M 490.5,15.5 C 512.34,15.1693 534.006,15.5027 555.5,16.5C 552.539,17.3234 549.539,17.99 546.5,18.5C 536.689,17.168 526.523,16.5013 516,16.5C 498.789,15.3832 481.956,17.0498 465.5,21.5C 469.048,19.1006 473.048,17.6006 477.5,17C 481.057,16.4024 484.557,15.569 488,14.5C 488.902,14.7432 489.735,15.0766 490.5,15.5 Z"/></g>
<g><path style="opacity:0.651" fill="#f6e481" d="M 490.5,15.5 C 513.327,14.5025 536.327,14.1692 559.5,14.5C 559.5,14.8333 559.5,15.1667 559.5,15.5C 558.292,16.2341 556.959,16.5674 555.5,16.5C 534.006,15.5027 512.34,15.1693 490.5,15.5 Z"/></g>
<g><path style="opacity:1" fill="#fcd402" d="M 546.5,18.5 C 544.036,19.5665 541.703,20.8998 539.5,22.5C 536.151,23.1695 533.484,24.8361 531.5,27.5C 529.068,28.7502 526.734,30.2502 524.5,32C 522.859,33.129 521.859,34.629 521.5,36.5C 520.094,36.9731 519.427,37.9731 519.5,39.5C 516.836,41.4844 515.169,44.1511 514.5,47.5C 511.43,53.7435 509.264,60.4101 508,67.5C 507.667,218.167 507.333,368.833 507,519.5C 505.948,526.128 505.448,532.794 505.5,539.5C 503.864,543.21 503.198,547.21 503.5,551.5C 501.862,556.248 500.862,561.248 500.5,566.5C 500.5,566.833 500.5,567.167 500.5,567.5C 499.232,569.905 498.565,572.572 498.5,575.5C 497.566,576.568 497.232,577.901 497.5,579.5C 496.076,581.515 495.41,583.848 495.5,586.5C 494.511,589.726 493.511,593.06 492.5,596.5C 489.325,604.012 486.325,611.679 483.5,619.5C 483.5,619.833 483.5,620.167 483.5,620.5C 481.085,623.34 479.752,626.673 479.5,630.5C 478.115,631.574 476.949,632.907 476,634.5C 474.16,638.845 472.327,643.178 470.5,647.5C 468.659,649.849 467.326,652.515 466.5,655.5C 464.659,657.849 463.326,660.515 462.5,663.5C 460.992,665.181 459.992,667.181 459.5,669.5C 457.341,672.484 455.675,675.817 454.5,679.5C 451.992,683.182 449.992,687.182 448.5,691.5C 444.837,697.494 441.67,703.827 439,710.5C 437.855,711.684 436.688,711.684 435.5,710.5C 435.672,709.508 435.338,708.842 434.5,708.5C 433.674,705.515 432.341,702.849 430.5,700.5C 428.341,694.849 425.674,689.516 422.5,684.5C 421.792,681.451 420.459,678.785 418.5,676.5C 417.633,672.671 415.967,669.337 413.5,666.5C 413.5,666.167 413.5,665.833 413.5,665.5C 413.573,663.973 412.906,662.973 411.5,662.5C 411.5,662.167 411.5,661.833 411.5,661.5C 410.026,657.744 408.359,654.077 406.5,650.5C 405.062,646.436 403.729,642.269 402.5,638C 402.185,634.34 403.018,633.84 405,636.5C 405.395,634.821 405.228,633.155 404.5,631.5C 405.762,628.978 406.429,626.311 406.5,623.5C 408.017,623.489 409.184,622.823 410,621.5C 410.333,622.167 410.667,622.833 411,623.5C 411.972,620.411 412.472,617.244 412.5,614C 413.01,612.174 413.844,612.007 415,613.5C 413.887,609.221 415.387,606.054 419.5,604C 418.572,603.612 417.905,602.945 417.5,602C 418.985,595.531 420.318,589.031 421.5,582.5C 422.5,582.5 423.5,582.5 424.5,582.5C 426.174,574.347 427.174,565.347 427.5,555.5C 427.5,555.167 427.5,554.833 427.5,554.5C 428.315,553.571 429.148,552.571 430,551.5C 430.499,546.177 430.666,540.844 430.5,535.5C 430.5,534.833 430.5,534.167 430.5,533.5C 431.167,533.5 431.5,533.167 431.5,532.5C 432.327,527.015 432.827,521.348 433,515.5C 433.5,368.834 433.667,222.167 433.5,75.5C 433.5,72.5 433.5,69.5 433.5,66.5C 433.97,59.2672 435.97,52.6005 439.5,46.5C 440.5,46.5 441.5,46.5 442.5,46.5C 442.215,44.712 442.548,43.0453 443.5,41.5C 447.635,38.8648 451.301,35.6981 454.5,32C 453.549,31.2825 453.383,30.4491 454,29.5C 456.191,28.1666 458.024,26.5 459.5,24.5C 461.967,24.2451 463.967,23.2451 465.5,21.5C 481.956,17.0498 498.789,15.3832 516,16.5C 526.523,16.5013 536.689,17.168 546.5,18.5 Z"/></g>
<g><path style="opacity:1" fill="#fdd501" d="M 966.5,18.5 C 963.261,19.4617 960.261,20.7951 957.5,22.5C 955.326,22.7497 953.659,23.7497 952.5,25.5C 950.251,26.0798 948.585,27.4131 947.5,29.5C 942.775,31.8922 939.442,35.5588 937.5,40.5C 936.094,40.9731 935.427,41.9731 935.5,43.5C 934.143,44.5903 933.143,45.9236 932.5,47.5C 931.057,48.3351 930.057,49.6684 929.5,51.5C 927.72,56.7699 926.22,62.1032 925,67.5C 924.5,219.5 924.333,371.5 924.5,523.5C 924.299,529.509 923.966,535.509 923.5,541.5C 923.443,542.609 923.11,543.609 922.5,544.5C 921.778,544.918 921.278,545.584 921,546.5C 919.671,554.813 918.505,563.147 917.5,571.5C 916.343,576.462 915.343,581.462 914.5,586.5C 912.102,590.403 910.769,594.736 910.5,599.5C 909.662,599.842 909.328,600.508 909.5,601.5C 907.926,603.102 907.259,605.102 907.5,607.5C 905.474,611.216 903.807,615.216 902.5,619.5C 900.277,622.802 898.61,626.468 897.5,630.5C 896.263,631.965 895.263,633.632 894.5,635.5C 890.382,635.916 888.716,637.916 889.5,641.5C 888.005,643.99 887.005,646.657 886.5,649.5C 885.5,649.5 884.5,649.5 883.5,649.5C 883.584,653.331 882.917,656.998 881.5,660.5C 879.02,666.618 876.353,672.618 873.5,678.5C 873.5,678.833 873.5,679.167 873.5,679.5C 872.094,679.973 871.427,680.973 871.5,682.5C 869.396,685.947 867.729,689.613 866.5,693.5C 864.229,695.612 862.896,698.279 862.5,701.5C 860.659,703.849 859.326,706.515 858.5,709.5C 857.685,710.429 856.852,711.429 856,712.5C 855.617,711.944 855.117,711.611 854.5,711.5C 851.615,703.399 847.949,695.733 843.5,688.5C 843.573,686.973 842.906,685.973 841.5,685.5C 838.939,678.161 835.606,671.161 831.5,664.5C 830.674,661.515 829.341,658.849 827.5,656.5C 826.499,653.828 825.499,651.162 824.5,648.5C 823.559,644.677 822.226,641.01 820.5,637.5C 821.156,635.547 821.489,633.547 821.5,631.5C 821.66,629.847 822.326,628.514 823.5,627.5C 826.496,624.503 828.163,620.836 828.5,616.5C 830.38,614.245 831.38,611.578 831.5,608.5C 832.633,604.433 833.967,600.433 835.5,596.5C 837.066,593.997 839.066,591.831 841.5,590C 840.652,587.23 840.319,584.397 840.5,581.5C 842.01,573.796 843.676,566.129 845.5,558.5C 847.592,554.418 849.092,550.085 850,545.5C 850.499,539.509 850.666,533.509 850.5,527.5C 852.332,375.17 853.166,222.503 853,69.5C 853.973,67.6079 854.64,65.6079 855,63.5C 855.333,63.8333 855.667,64.1667 856,64.5C 856.309,63.2341 856.809,62.0674 857.5,61C 856.444,56.8914 856.444,52.7247 857.5,48.5C 857.5,48.1667 857.5,47.8333 857.5,47.5C 859.057,46.5337 860.39,45.2004 861.5,43.5C 862.908,40.4598 864.241,37.4598 865.5,34.5C 867.411,33.925 869.078,32.925 870.5,31.5C 875.458,28.8622 879.792,25.5288 883.5,21.5C 891.396,19.8277 899.396,18.3277 907.5,17C 917.333,16.8333 927.167,16.6667 937,16.5C 947.19,16.5014 957.023,17.1681 966.5,18.5 Z"/></g>
<g><path style="opacity:1" fill="#49653d" d="M 980.5,15.5 C 980.833,15.5 981.167,15.5 981.5,15.5C 981.389,16.1174 981.056,16.6174 980.5,17C 977.854,17.4974 975.187,17.6641 972.5,17.5C 972.5,16.8333 972.833,16.5 973.5,16.5C 975.861,16.3259 978.194,15.9926 980.5,15.5 Z"/></g>
<g><path style="opacity:0.965" fill="#7091a4" d="M 745.5,18.5 C 747.698,18.8751 749.698,19.5418 751.5,20.5C 748.918,20.9746 746.918,20.3079 745.5,18.5 Z"/></g>
<g><path style="opacity:1" fill="#4a6438" d="M 971.5,17.5 C 971.5,17.8333 971.5,18.1667 971.5,18.5C 966.874,20.0428 962.207,21.3761 957.5,22.5C 960.261,20.7951 963.261,19.4617 966.5,18.5C 968.042,17.6993 969.708,17.366 971.5,17.5 Z"/></g>
<g><path style="opacity:1" fill="#edd026" d="M 71.5,16.5 C 92.8333,15.1667 114.167,15.1667 135.5,16.5C 131.558,17.5905 127.891,19.2572 124.5,21.5C 120.835,21.5018 117.835,22.8352 115.5,25.5C 113.716,25.8925 112.05,26.5592 110.5,27.5C 110.343,26.1266 110.51,24.7932 111,23.5C 112.049,24.5171 113.216,24.6838 114.5,24C 114.043,23.586 113.709,23.086 113.5,22.5C 115.296,21.8586 116.796,20.8586 118,19.5C 119.388,20.5536 120.888,20.7203 122.5,20C 121.833,19.6667 121.167,19.3333 120.5,19C 122.715,17.9562 125.048,17.2895 127.5,17C 108.836,16.5001 90.1696,16.3334 71.5,16.5 Z"/></g>
<g><path style="opacity:1" fill="#395a42" d="M 559.5,15.5 C 561.833,15.5 564.167,15.5 566.5,15.5C 565.192,16.2323 563.858,17.0656 562.5,18C 558.5,18.3333 554.5,18.6667 550.5,19C 546.991,20.7594 543.325,21.926 539.5,22.5C 541.703,20.8998 544.036,19.5665 546.5,18.5C 549.539,17.99 552.539,17.3234 555.5,16.5C 556.959,16.5674 558.292,16.2341 559.5,15.5 Z"/></g>
<g><path style="opacity:1" fill="#3a6581" d="M 310.5,15.5 C 319.051,15.6912 327.051,17.6912 334.5,21.5C 331.499,22.5809 328.666,23.2476 326,23.5C 325.122,19.4861 322.622,17.4861 318.5,17.5C 316.443,18.8221 314.61,18.4887 313,16.5C 311.274,18.0978 310.441,17.7645 310.5,15.5 Z"/></g>
<g><path style="opacity:1" fill="#365643" d="M 124.5,21.5 C 121.927,23.6165 118.927,24.9498 115.5,25.5C 117.835,22.8352 120.835,21.5018 124.5,21.5 Z"/></g>
<g><path style="opacity:0.718" fill="#fbe87c" d="M 465.5,21.5 C 463.967,23.2451 461.967,24.2451 459.5,24.5C 461.033,22.7549 463.033,21.7549 465.5,21.5 Z"/></g>
<g><path style="opacity:1" fill="#325544" d="M 539.5,22.5 C 537.596,25.2108 534.93,26.8775 531.5,27.5C 533.484,24.8361 536.151,23.1695 539.5,22.5 Z"/></g>
<g><path style="opacity:1" fill="#506634" d="M 957.5,22.5 C 956.514,24.4077 954.848,25.4077 952.5,25.5C 953.659,23.7497 955.326,22.7497 957.5,22.5 Z"/></g>
<g><path style="opacity:1" fill="#f5da46" d="M 883.5,21.5 C 879.792,25.5288 875.458,28.8622 870.5,31.5C 870.833,30.8333 871.167,30.1667 871.5,29.5C 874.669,25.6095 878.669,22.9428 883.5,21.5 Z"/></g>
<g><path style="opacity:1" fill="#345a38" d="M 952.5,25.5 C 951.415,27.5869 949.749,28.9202 947.5,29.5C 948.585,27.4131 950.251,26.0798 952.5,25.5 Z"/></g>
<g><path style="opacity:1" fill="#3b6681" d="M 760.5,25.5 C 768.948,29.9489 774.948,36.6156 778.5,45.5C 775.875,43.3774 773.375,41.044 771,38.5C 770.055,38.9054 769.388,39.572 769,40.5C 768.605,38.8214 768.772,37.1547 769.5,35.5C 769.081,34.3279 768.415,33.3279 767.5,32.5C 765.704,31.8586 764.204,30.8586 763,29.5C 762.667,29.8333 762.333,30.1667 762,30.5C 757.335,29.2609 757.502,28.4276 762.5,28C 761.244,27.5831 760.577,26.7498 760.5,25.5 Z"/></g>
<g><path style="opacity:0.725" fill="#fded96" d="M 871.5,29.5 C 871.167,30.1667 870.833,30.8333 870.5,31.5C 869.078,32.925 867.411,33.925 865.5,34.5C 866.911,32.086 868.911,30.4194 871.5,29.5 Z"/></g>
<g><path style="opacity:1" fill="#38583f" d="M 115.5,25.5 C 110.193,30.4721 104.86,35.4721 99.5,40.5C 102.768,35.8927 106.435,31.5594 110.5,27.5C 112.05,26.5592 113.716,25.8925 115.5,25.5 Z"/></g>
<g><path style="opacity:1" fill="#f8dc44" d="M 459.5,24.5 C 458.024,26.5 456.191,28.1666 454,29.5C 453.383,30.4491 453.549,31.2825 454.5,32C 451.301,35.6981 447.635,38.8648 443.5,41.5C 442.548,43.0453 442.215,44.712 442.5,46.5C 441.5,46.5 440.5,46.5 439.5,46.5C 442.234,39.4195 446.567,33.4195 452.5,28.5C 454.725,26.89 457.059,25.5566 459.5,24.5 Z"/></g>
<g><path style="opacity:1" fill="#476138" d="M 531.5,27.5 C 528.585,30.9587 525.252,33.9587 521.5,36.5C 521.859,34.629 522.859,33.129 524.5,32C 526.734,30.2502 529.068,28.7502 531.5,27.5 Z"/></g>
<g><path style="opacity:1" fill="#425e3b" d="M 947.5,29.5 C 944.138,33.1925 940.805,36.8592 937.5,40.5C 939.442,35.5588 942.775,31.8922 947.5,29.5 Z"/></g>
<g><path style="opacity:1" fill="#f7e063" d="M 865.5,34.5 C 864.241,37.4598 862.908,40.4598 861.5,43.5C 860.39,45.2004 859.057,46.5337 857.5,47.5C 859.247,43.0833 861.913,38.7499 865.5,34.5 Z"/></g>
<g><path style="opacity:1" fill="#45623e" d="M 99.5,40.5 C 98.9251,43.9116 97.5918,46.9116 95.5,49.5C 95.5,48.8333 95.5,48.1667 95.5,47.5C 96.0787,44.6689 97.412,42.3356 99.5,40.5 Z"/></g>
<g><path style="opacity:1" fill="#3b5f39" d="M 519.5,39.5 C 518.302,42.5856 516.635,45.2523 514.5,47.5C 515.169,44.1511 516.836,41.4844 519.5,39.5 Z"/></g>
<g><path style="opacity:1" fill="#37627e" d="M 1186.5,30.5 C 1193.43,36.6656 1198.09,44.3322 1200.5,53.5C 1198.39,51.143 1196.06,49.643 1193.5,49C 1194.52,48.4806 1195.18,47.6473 1195.5,46.5C 1194.74,43.1265 1192.74,40.9598 1189.5,40C 1190.34,38.9887 1190.67,37.8221 1190.5,36.5C 1187.22,35.9694 1185.89,33.9694 1186.5,30.5 Z"/></g>
<g><path style="opacity:1" fill="#f7df64" d="M 23.5,41.5 C 21.4205,47.3186 19.0872,52.9852 16.5,58.5C 17.4872,52.187 19.8205,46.5203 23.5,41.5 Z"/></g>
<g><path style="opacity:1" fill="#3f5d47" d="M 935.5,43.5 C 934.548,48.7252 932.548,53.3919 929.5,57.5C 930.381,54.1305 931.381,50.7972 932.5,47.5C 933.143,45.9236 934.143,44.5903 935.5,43.5 Z"/></g>
<g><path style="opacity:1" fill="#385842" d="M 95.5,49.5 C 95.357,52.3852 94.357,54.7185 92.5,56.5C 92.1663,53.509 93.1663,51.1757 95.5,49.5 Z"/></g>
<g><path style="opacity:1" fill="#54798e" d="M 364.5,58.5 C 365.571,62.3878 366.904,66.2211 368.5,70C 367.565,72.3806 367.232,74.8806 367.5,77.5C 367.167,77.5 366.833,77.5 366.5,77.5C 365.112,71.2885 364.445,64.9552 364.5,58.5 Z"/></g>
<g><path style="opacity:1" fill="#f8de5f" d="M 16.5,58.5 C 16.9457,64.0214 16.4457,69.3548 15,74.5C 14.3333,246.833 14.3333,419.167 15,591.5C 15.9933,604.25 17.4933,616.917 19.5,629.5C 19.1667,629.5 18.8333,629.5 18.5,629.5C 16.747,622.644 15.747,615.644 15.5,608.5C 15.8128,604.958 15.4794,601.625 14.5,598.5C 13.6733,593.349 13.1733,588.016 13,582.5C 12.3333,414.833 12.3333,247.167 13,79.5C 13.1242,72.1899 14.2909,65.1899 16.5,58.5 Z"/></g>
<g><path style="opacity:1" fill="#f7d744" d="M 857.5,48.5 C 856.444,52.7247 856.444,56.8914 857.5,61C 856.809,62.0674 856.309,63.2341 856,64.5C 855.667,64.1667 855.333,63.8333 855,63.5C 854.64,65.6079 853.973,67.6079 853,69.5C 853.166,222.503 852.332,375.17 850.5,527.5C 850.5,524.5 850.5,521.5 850.5,518.5C 850.333,369.833 850.5,221.166 851,72.5C 851.633,63.9591 853.799,55.9591 857.5,48.5 Z"/></g>
<g><path style="opacity:1" fill="#e7d431" d="M 932.5,47.5 C 931.381,50.7972 930.381,54.1305 929.5,57.5C 929.5,58.1667 929.5,58.8333 929.5,59.5C 927.656,63.862 926.656,68.5286 926.5,73.5C 925.833,223.5 925.167,373.5 924.5,523.5C 924.333,371.5 924.5,219.5 925,67.5C 926.22,62.1032 927.72,56.7699 929.5,51.5C 930.057,49.6684 931.057,48.3351 932.5,47.5 Z"/></g>
<g><path style="opacity:1" fill="#f2d12b" d="M 433.5,75.5 C 433.667,222.167 433.5,368.834 433,515.5C 432.827,521.348 432.327,527.015 431.5,532.5C 431.5,529.5 431.5,526.5 431.5,523.5C 431.5,519.833 431.5,516.167 431.5,512.5C 432.167,366.833 432.833,221.167 433.5,75.5 Z"/></g>
<g><path style="opacity:1" fill="#decc38" d="M 95.5,47.5 C 95.5,48.1667 95.5,48.8333 95.5,49.5C 93.1663,51.1757 92.1663,53.509 92.5,56.5C 90.7352,61.5739 89.5686,66.9073 89,72.5C 88.3333,243.5 88.3333,414.5 89,585.5C 89.5833,594.166 90.0833,602.833 90.5,611.5C 90.5,612.833 90.5,614.167 90.5,615.5C 89.8826,615.389 89.3826,615.056 89,614.5C 89.2652,607.472 88.0985,600.805 85.5,594.5C 86.3308,420.188 86.8308,245.854 87,71.5C 88.012,66.7088 89.1786,61.8755 90.5,57C 90.2305,55.4857 89.8971,53.9857 89.5,52.5C 89.4296,50.3344 90.0962,50.0011 91.5,51.5C 92.4287,50.3112 92.762,48.9778 92.5,47.5C 93.5,47.5 94.5,47.5 95.5,47.5 Z"/></g>
<g><path style="opacity:0.439" fill="#feee7d" d="M 433.5,66.5 C 433.5,69.5 433.5,72.5 433.5,75.5C 432.833,221.167 432.167,366.833 431.5,512.5C 431.333,366.5 431.5,220.5 432,74.5C 432.183,71.6353 432.683,68.9686 433.5,66.5 Z"/></g>
<g><path style="opacity:1" fill="#3e6884" d="M 1202.5,60.5 C 1203.9,64.5911 1204.73,68.9244 1205,73.5C 1205.82,249.176 1205.66,424.843 1204.5,600.5C 1203.6,601.209 1203.26,602.209 1203.5,603.5C 1203.5,604.167 1203.5,604.833 1203.5,605.5C 1203.17,605.5 1202.83,605.5 1202.5,605.5C 1203.83,423.829 1203.83,242.163 1202.5,60.5 Z"/></g>
<g><path style="opacity:1" fill="#245042" d="M 514.5,47.5 C 512.9,55.1887 511.067,62.8554 509,70.5C 508.833,224.168 508.333,377.834 507.5,531.5C 506.833,536.651 506.166,541.651 505.5,546.5C 505.5,544.167 505.5,541.833 505.5,539.5C 505.448,532.794 505.948,526.128 507,519.5C 507.333,368.833 507.667,218.167 508,67.5C 509.264,60.4101 511.43,53.7435 514.5,47.5 Z"/></g>
<g><path style="opacity:1" fill="#1e4d69" d="M 366.5,77.5 C 366.833,77.5 367.167,77.5 367.5,77.5C 367.5,220.167 367.5,362.833 367.5,505.5C 367.179,511.026 367.512,516.36 368.5,521.5C 369.098,526.813 369.431,532.146 369.5,537.5C 368.829,534.242 367.996,530.909 367,527.5C 366.5,377.5 366.333,227.5 366.5,77.5 Z"/></g>
<g><path style="opacity:1" fill="#274f4b" d="M 92.5,56.5 C 92.9155,60.3751 92.4155,64.0418 91,67.5C 90.3333,244.833 90.3333,422.167 91,599.5C 91.3742,598.584 91.8742,597.75 92.5,597C 91.4464,595.612 91.2797,594.112 92,592.5C 93.0463,593.772 93.5463,595.272 93.5,597C 92.6476,603.472 92.3143,609.972 92.5,616.5C 91.8333,614.833 91.1667,613.167 90.5,611.5C 90.0833,602.833 89.5833,594.166 89,585.5C 88.3333,414.5 88.3333,243.5 89,72.5C 89.5686,66.9073 90.7352,61.5739 92.5,56.5 Z"/></g>
<g><path style="opacity:1" fill="#2f5b77" d="M 778.5,45.5 C 782.68,53.1969 785.18,61.5302 786,70.5C 786.185,222.841 786.685,375.174 787.5,527.5C 785.78,525.342 784.947,522.675 785,519.5C 784.667,370.833 784.333,222.167 784,73.5C 782.513,72.7471 782.346,71.9138 783.5,71C 782.695,66.2512 782.195,61.4179 782,56.5C 779.456,53.3394 778.289,49.6728 778.5,45.5 Z"/></g>
<g><path style="opacity:1" fill="#1d5052" d="M 929.5,59.5 C 928.846,65.8097 928.346,72.143 928,78.5C 927.833,223.001 927.333,367.334 926.5,511.5C 926.5,365.5 926.5,219.5 926.5,73.5C 926.656,68.5286 927.656,63.862 929.5,59.5 Z"/></g>
<g><path style="opacity:1" fill="#0d5271" d="M 91.5,284.5 C 92.2679,285.263 92.7679,286.263 93,287.5C 93.8333,367.835 93.6666,448.169 92.5,528.5C 91.5,447.169 91.1667,365.836 91.5,284.5 Z"/></g>
<g><path style="opacity:0.329" fill="#c0d3df" d="M 367.5,505.5 C 368.216,507.556 368.883,509.723 369.5,512C 368.549,515.057 368.216,518.223 368.5,521.5C 367.512,516.36 367.179,511.026 367.5,505.5 Z"/></g>
<g><path style="opacity:1" fill="#4d6a42" d="M 926.5,73.5 C 926.5,219.5 926.5,365.5 926.5,511.5C 926.96,521.611 926.293,531.611 924.5,541.5C 924.167,541.5 923.833,541.5 923.5,541.5C 923.966,535.509 924.299,529.509 924.5,523.5C 925.167,373.5 925.833,223.5 926.5,73.5 Z"/></g>
<g><path style="opacity:0.851" fill="#fae68c" d="M 431.5,523.5 C 431.5,526.5 431.5,529.5 431.5,532.5C 431.5,533.167 431.167,533.5 430.5,533.5C 429.519,530.062 429.852,526.728 431.5,523.5 Z"/></g>
<g><path style="opacity:0.506" fill="#9fbac8" d="M 788.5,540.5 C 789.289,540.783 789.956,541.283 790.5,542C 789.663,543.011 789.33,544.178 789.5,545.5C 788.549,544.081 788.216,542.415 788.5,540.5 Z"/></g>
<g><path style="opacity:1" fill="#4a6737" d="M 505.5,539.5 C 505.5,541.833 505.5,544.167 505.5,546.5C 504.976,548.306 504.309,549.972 503.5,551.5C 503.198,547.21 503.864,543.21 505.5,539.5 Z"/></g>
<g><path style="opacity:1" fill="#f5da48" d="M 430.5,535.5 C 430.666,540.844 430.499,546.177 430,551.5C 429.148,552.571 428.315,553.571 427.5,554.5C 428.237,547.992 429.237,541.659 430.5,535.5 Z"/></g>
<g><path style="opacity:1" fill="#f6da4a" d="M 850.5,518.5 C 850.5,521.5 850.5,524.5 850.5,527.5C 850.666,533.509 850.499,539.509 850,545.5C 849.092,550.085 847.592,554.418 845.5,558.5C 847.619,545.082 849.285,531.748 850.5,518.5 Z"/></g>
<g><path style="opacity:1" fill="#31544d" d="M 923.5,541.5 C 923.833,541.5 924.167,541.5 924.5,541.5C 924.827,546.214 924.493,550.88 923.5,555.5C 922.989,557.884 921.989,559.884 920.5,561.5C 921.427,555.866 922.093,550.199 922.5,544.5C 923.11,543.609 923.443,542.609 923.5,541.5 Z"/></g>
<g><path style="opacity:1" fill="#ddce3c" d="M 922.5,544.5 C 922.093,550.199 921.427,555.866 920.5,561.5C 919.419,564.627 918.753,567.96 918.5,571.5C 918.167,571.5 917.833,571.5 917.5,571.5C 918.505,563.147 919.671,554.813 921,546.5C 921.278,545.584 921.778,544.918 922.5,544.5 Z"/></g>
<g><path style="opacity:1" fill="#546b35" d="M 503.5,551.5 C 503.876,556.894 502.876,561.894 500.5,566.5C 500.862,561.248 501.862,556.248 503.5,551.5 Z"/></g>
<g><path style="opacity:1" fill="#385941" d="M 920.5,561.5 C 920.664,564.187 920.497,566.854 920,569.5C 919.722,570.416 919.222,571.082 918.5,571.5C 918.753,567.96 919.419,564.627 920.5,561.5 Z"/></g>
<g><path style="opacity:1" fill="#f7d93f" d="M 427.5,555.5 C 427.174,565.347 426.174,574.347 424.5,582.5C 423.5,582.5 422.5,582.5 421.5,582.5C 423.373,573.352 425.373,564.352 427.5,555.5 Z"/></g>
<g><path style="opacity:1" fill="#3e5e3b" d="M 500.5,567.5 C 501.036,570.698 500.369,573.365 498.5,575.5C 498.565,572.572 499.232,569.905 500.5,567.5 Z"/></g>
<g><path style="opacity:0.976" fill="#7a99ae" d="M 794.5,572.5 C 795.768,574.905 796.435,577.572 796.5,580.5C 794.96,578.162 794.294,575.495 794.5,572.5 Z"/></g>
<g><path style="opacity:1" fill="#58702b" d="M 497.5,579.5 C 497.59,582.152 496.924,584.485 495.5,586.5C 495.41,583.848 496.076,581.515 497.5,579.5 Z"/></g>
<g><path style="opacity:1" fill="#385943" d="M 917.5,571.5 C 917.833,571.5 918.167,571.5 918.5,571.5C 919.329,577.232 917.995,582.232 914.5,586.5C 915.343,581.462 916.343,576.462 917.5,571.5 Z"/></g>
<g><path style="opacity:1" fill="#f8da48" d="M 840.5,581.5 C 840.319,584.397 840.652,587.23 841.5,590C 839.066,591.831 837.066,593.997 835.5,596.5C 836.997,591.341 838.664,586.341 840.5,581.5 Z"/></g>
<g><path style="opacity:0.839" fill="#859fb5" d="M 379.5,586.5 C 380.924,588.515 381.59,590.848 381.5,593.5C 380.076,591.485 379.41,589.152 379.5,586.5 Z"/></g>
<g><path style="opacity:1" fill="#395b42" d="M 914.5,586.5 C 914.046,589.865 913.38,593.198 912.5,596.5C 912.36,598.03 911.693,599.03 910.5,599.5C 910.769,594.736 912.102,590.403 914.5,586.5 Z"/></g>
<g><path style="opacity:0.071" fill="#dbf0f8" d="M 1204.5,600.5 C 1205.81,601.895 1205.48,602.895 1203.5,603.5C 1203.26,602.209 1203.6,601.209 1204.5,600.5 Z"/></g>
<g><path style="opacity:1" fill="#f8d838" d="M 421.5,582.5 C 420.318,589.031 418.985,595.531 417.5,602C 417.905,602.945 418.572,603.612 419.5,604C 415.387,606.054 413.887,609.221 415,613.5C 413.844,612.007 413.01,612.174 412.5,614C 412.472,617.244 411.972,620.411 411,623.5C 410.667,622.833 410.333,622.167 410,621.5C 409.184,622.823 408.017,623.489 406.5,623.5C 411.828,609.865 416.828,596.198 421.5,582.5 Z"/></g>
<g><path style="opacity:1" fill="#45613e" d="M 492.5,596.5 C 491.017,602.144 489.517,607.811 488,613.5C 487.114,616.093 485.614,618.093 483.5,619.5C 486.325,611.679 489.325,604.012 492.5,596.5 Z"/></g>
<g><path style="opacity:1" fill="#486639" d="M 909.5,601.5 C 909.741,603.898 909.074,605.898 907.5,607.5C 907.259,605.102 907.926,603.102 909.5,601.5 Z"/></g>
<g><path style="opacity:0.165" fill="#faed96" d="M 14.5,598.5 C 15.4794,601.625 15.8128,604.958 15.5,608.5C 14.7515,607.469 14.0848,606.302 13.5,605C 14.4231,602.959 14.7564,600.792 14.5,598.5 Z"/></g>
<g><path style="opacity:0.686" fill="#99b7c5" d="M 1202.5,605.5 C 1202.83,605.5 1203.17,605.5 1203.5,605.5C 1203.94,605.435 1204.27,605.601 1204.5,606C 1203.88,608.277 1203.22,610.444 1202.5,612.5C 1202.5,610.167 1202.5,607.833 1202.5,605.5 Z"/></g>
<g><path style="opacity:1" fill="#3e6041" d="M 907.5,607.5 C 907.306,612.297 905.639,616.297 902.5,619.5C 903.807,615.216 905.474,611.216 907.5,607.5 Z"/></g>
<g><path style="opacity:0.831" fill="#fae882" d="M 831.5,608.5 C 831.38,611.578 830.38,614.245 828.5,616.5C 828.62,613.422 829.62,610.755 831.5,608.5 Z"/></g>
<g><path style="opacity:1" fill="#bfb73c" d="M 90.5,611.5 C 91.1667,613.167 91.8333,614.833 92.5,616.5C 92.5,617.833 92.5,619.167 92.5,620.5C 92.5,621.5 92.5,622.5 92.5,623.5C 91.2318,621.095 90.5651,618.428 90.5,615.5C 90.5,614.167 90.5,612.833 90.5,611.5 Z"/></g>
<g><path style="opacity:1" fill="#2f523f" d="M 92.5,620.5 C 94.2655,623.123 94.9321,626.123 94.5,629.5C 93.8333,627.5 93.1667,625.5 92.5,623.5C 92.5,622.5 92.5,621.5 92.5,620.5 Z"/></g>
<g><path style="opacity:1" fill="#f9e067" d="M 828.5,616.5 C 828.163,620.836 826.496,624.503 823.5,627.5C 824.382,623.407 826.049,619.74 828.5,616.5 Z"/></g>
<g><path style="opacity:1" fill="#385641" d="M 483.5,620.5 C 483.248,624.327 481.915,627.66 479.5,630.5C 479.752,626.673 481.085,623.34 483.5,620.5 Z"/></g>
<g><path style="opacity:1" fill="#395b45" d="M 902.5,619.5 C 901.59,622.789 900.59,626.122 899.5,629.5C 898.817,629.863 898.15,630.196 897.5,630.5C 898.61,626.468 900.277,622.802 902.5,619.5 Z"/></g>
<g><path style="opacity:0.42" fill="#fef2b1" d="M 18.5,629.5 C 18.8333,629.5 19.1667,629.5 19.5,629.5C 19.5,630.833 19.5,632.167 19.5,633.5C 17.8906,632.335 17.5573,631.001 18.5,629.5 Z"/></g>
<g><path style="opacity:1" fill="#e9d129" d="M 894.5,635.5 C 893.637,637.421 892.971,639.421 892.5,641.5C 891.662,641.842 891.328,642.508 891.5,643.5C 889.75,644.659 888.75,646.326 888.5,648.5C 886.458,651.614 884.791,654.948 883.5,658.5C 883.5,658.833 883.5,659.167 883.5,659.5C 882.833,659.833 882.167,660.167 881.5,660.5C 882.917,656.998 883.584,653.331 883.5,649.5C 884.5,649.5 885.5,649.5 886.5,649.5C 887.005,646.657 888.005,643.99 889.5,641.5C 888.716,637.916 890.382,635.916 894.5,635.5 Z"/></g>
<g><path style="opacity:1" fill="#ead33d" d="M 406.5,623.5 C 406.429,626.311 405.762,628.978 404.5,631.5C 405.228,633.155 405.395,634.821 405,636.5C 403.018,633.84 402.185,634.34 402.5,638C 403.729,642.269 405.062,646.436 406.5,650.5C 405.857,648.924 404.857,647.59 403.5,646.5C 403.672,645.508 403.338,644.842 402.5,644.5C 402.245,642.033 401.245,640.033 399.5,638.5C 399.5,637.833 399.5,637.167 399.5,636.5C 402.024,632.257 404.357,627.924 406.5,623.5 Z"/></g>
<g><path style="opacity:1" fill="#2d5450" d="M 94.5,632.5 C 95.7823,634.866 97.449,637.033 99.5,639C 98.565,641.381 98.2317,643.881 98.5,646.5C 96.5869,642.678 95.2535,638.678 94.5,634.5C 94.5,633.833 94.5,633.167 94.5,632.5 Z"/></g>
<g><path style="opacity:1" fill="#dcd04b" d="M 821.5,631.5 C 821.489,633.547 821.156,635.547 820.5,637.5C 822.226,641.01 823.559,644.677 824.5,648.5C 822.748,645.328 820.748,642.328 818.5,639.5C 818.5,638.167 818.5,636.833 818.5,635.5C 819.5,634.167 820.5,632.833 821.5,631.5 Z"/></g>
<g><path style="opacity:1" fill="#4d758b" d="M 1200.5,625.5 C 1199.75,633.154 1198.08,640.487 1195.5,647.5C 1195.33,643.486 1195.5,639.486 1196,635.5C 1196.67,634.833 1197.33,634.167 1198,633.5C 1198.33,630.167 1198.67,626.833 1199,623.5C 1199.28,624.416 1199.78,625.082 1200.5,625.5 Z"/></g>
<g><path style="opacity:1" fill="#395c46" d="M 479.5,630.5 C 477.627,635.618 475.46,640.618 473,645.5C 472.292,646.381 471.458,647.047 470.5,647.5C 472.327,643.178 474.16,638.845 476,634.5C 476.949,632.907 478.115,631.574 479.5,630.5 Z"/></g>
<g><path style="opacity:1" fill="#335743" d="M 897.5,630.5 C 897.163,634.836 895.496,638.503 892.5,641.5C 892.971,639.421 893.637,637.421 894.5,635.5C 895.263,633.632 896.263,631.965 897.5,630.5 Z"/></g>
<g><path style="opacity:1" fill="#f6dd59" d="M 19.5,634.5 C 22.797,638.822 24.1303,643.822 23.5,649.5C 22.0462,648.48 21.7129,647.313 22.5,646C 21.1124,642.283 20.1124,638.45 19.5,634.5 Z"/></g>
<g><path style="opacity:1" fill="#3d5c37" d="M 399.5,638.5 C 401.245,640.033 402.245,642.033 402.5,644.5C 400.755,642.967 399.755,640.967 399.5,638.5 Z"/></g>
<g><path style="opacity:1" fill="#31574f" d="M 818.5,639.5 C 820.748,642.328 822.748,645.328 824.5,648.5C 825.499,651.162 826.499,653.828 827.5,656.5C 825.363,653.32 822.863,650.32 820,647.5C 819.178,644.883 818.678,642.216 818.5,639.5 Z"/></g>
<g><path style="opacity:1" fill="#405f3f" d="M 891.5,643.5 C 891.408,645.848 890.408,647.514 888.5,648.5C 888.75,646.326 889.75,644.659 891.5,643.5 Z"/></g>
<g><path style="opacity:1" fill="#d5c737" d="M 94.5,634.5 C 95.2535,638.678 96.5869,642.678 98.5,646.5C 98.5,647.167 98.5,647.833 98.5,648.5C 100.419,654.431 102.086,660.431 103.5,666.5C 101.378,662 99.3779,657.333 97.5,652.5C 95.8726,646.589 94.8726,640.589 94.5,634.5 Z"/></g>
<g><path style="opacity:1" fill="#f7e87d" d="M 23.5,649.5 C 25.2227,651.78 25.8893,654.447 25.5,657.5C 23.9605,655.162 23.2938,652.495 23.5,649.5 Z"/></g>
<g><path style="opacity:1" fill="#2c5251" d="M 470.5,647.5 C 471.042,651.259 469.708,653.926 466.5,655.5C 467.326,652.515 468.659,649.849 470.5,647.5 Z"/></g>
<g><path style="opacity:1" fill="#2a524e" d="M 98.5,648.5 C 99.8846,649.574 101.051,650.907 102,652.5C 102.427,657.59 103.26,662.59 104.5,667.5C 103.833,667.5 103.5,667.167 103.5,666.5C 102.086,660.431 100.419,654.431 98.5,648.5 Z"/></g>
<g><path style="opacity:1" fill="#446140" d="M 403.5,646.5 C 404.857,647.59 405.857,648.924 406.5,650.5C 408.359,654.077 410.026,657.744 411.5,661.5C 407.545,657.26 404.878,652.26 403.5,646.5 Z"/></g>
<g><path style="opacity:1" fill="#3f5e45" d="M 888.5,648.5 C 888.917,652.936 887.25,656.269 883.5,658.5C 884.791,654.948 886.458,651.614 888.5,648.5 Z"/></g>
<g><path style="opacity:1" fill="#2f5450" d="M 466.5,655.5 C 467.042,659.259 465.708,661.926 462.5,663.5C 463.326,660.515 464.659,657.849 466.5,655.5 Z"/></g>
<g><path style="opacity:1" fill="#f8df5e" d="M 25.5,658.5 C 27.0425,660.396 28.7092,662.229 30.5,664C 29.5939,665.699 29.2606,667.533 29.5,669.5C 27.7225,666.098 26.3891,662.431 25.5,658.5 Z"/></g>
<g><path style="opacity:1" fill="#315451" d="M 827.5,656.5 C 829.341,658.849 830.674,661.515 831.5,664.5C 830.5,664.5 829.5,664.5 828.5,664.5C 828.167,661.833 827.833,659.167 827.5,656.5 Z"/></g>
<g><path style="opacity:1" fill="#657a37" d="M 411.5,662.5 C 412.906,662.973 413.573,663.973 413.5,665.5C 412.094,665.027 411.427,664.027 411.5,662.5 Z"/></g>
<g><path style="opacity:1" fill="#30554a" d="M 104.5,667.5 C 107.603,671.16 109.27,675.494 109.5,680.5C 107.279,676.522 105.612,672.189 104.5,667.5 Z"/></g>
<g><path style="opacity:1" fill="#415f47" d="M 413.5,666.5 C 415.967,669.337 417.633,672.671 418.5,676.5C 415.135,674.133 413.468,670.8 413.5,666.5 Z"/></g>
<g><path style="opacity:1" fill="#3a5c47" d="M 883.5,659.5 C 882.016,664.669 880.016,669.669 877.5,674.5C 876.676,676.421 875.343,677.754 873.5,678.5C 876.353,672.618 879.02,666.618 881.5,660.5C 882.167,660.167 882.833,659.833 883.5,659.5 Z"/></g>
<g><path style="opacity:1" fill="#f9e16a" d="M 29.5,670.5 C 31.2713,671.866 32.9379,673.366 34.5,675C 33.5769,677.041 33.2436,679.208 33.5,681.5C 32.1927,677.919 30.8594,674.253 29.5,670.5 Z"/></g>
<g><path style="opacity:1" fill="#446147" d="M 459.5,669.5 C 458.94,671.801 458.44,674.134 458,676.5C 457.241,678.063 456.074,679.063 454.5,679.5C 455.675,675.817 457.341,672.484 459.5,669.5 Z"/></g>
<g><path style="opacity:1" fill="#657638" d="M 873.5,679.5 C 873.443,680.609 873.11,681.609 872.5,682.5C 872.167,682.5 871.833,682.5 871.5,682.5C 871.427,680.973 872.094,679.973 873.5,679.5 Z"/></g>
<g><path style="opacity:1" fill="#3d5c3e" d="M 418.5,676.5 C 420.459,678.785 421.792,681.451 422.5,684.5C 419.863,682.518 418.53,679.852 418.5,676.5 Z"/></g>
<g><path style="opacity:0.961" fill="#f9e77a" d="M 33.5,681.5 C 36.149,683.412 37.4824,686.079 37.5,689.5C 35.659,687.151 34.3257,684.485 33.5,681.5 Z"/></g>
<g><path style="opacity:1" fill="#5a6b30" d="M 109.5,682.5 C 110.906,682.973 111.573,683.973 111.5,685.5C 110.094,685.027 109.427,684.027 109.5,682.5 Z"/></g>
<g><path style="opacity:1" fill="#325550" d="M 454.5,679.5 C 454.453,683.823 453.453,687.823 451.5,691.5C 450.5,691.5 449.5,691.5 448.5,691.5C 449.992,687.182 451.992,683.182 454.5,679.5 Z"/></g>
<g><path style="opacity:1" fill="#37574d" d="M 831.5,664.5 C 835.606,671.161 838.939,678.161 841.5,685.5C 841.427,687.027 842.094,688.027 843.5,688.5C 847.949,695.733 851.615,703.399 854.5,711.5C 849.52,704.22 845.02,696.553 841,688.5C 840.28,682.454 837.447,677.787 832.5,674.5C 832.931,673.707 833.265,672.873 833.5,672C 832.129,669.681 831.462,667.181 831.5,664.5 Z"/></g>
<g><path style="opacity:1" fill="#4b682e" d="M 841.5,685.5 C 842.906,685.973 843.573,686.973 843.5,688.5C 842.094,688.027 841.427,687.027 841.5,685.5 Z"/></g>
<g><path style="opacity:1" fill="#647633" d="M 111.5,687.5 C 112.906,687.973 113.573,688.973 113.5,690.5C 112.094,690.027 111.427,689.027 111.5,687.5 Z"/></g>
<g><path style="opacity:1" fill="#3f5d4b" d="M 871.5,682.5 C 871.833,682.5 872.167,682.5 872.5,682.5C 871.973,685.231 871.14,687.898 870,690.5C 868.961,691.71 867.794,692.71 866.5,693.5C 867.729,689.613 869.396,685.947 871.5,682.5 Z"/></g>
<g><path style="opacity:1" fill="#838935" d="M 113.5,692.5 C 114.5,692.833 115.167,693.5 115.5,694.5C 115.5,694.833 115.5,695.167 115.5,695.5C 114.094,695.027 113.427,694.027 113.5,692.5 Z"/></g>
<g><path style="opacity:1" fill="#215463" d="M 422.5,684.5 C 425.674,689.516 428.341,694.849 430.5,700.5C 429.417,700.461 428.417,700.127 427.5,699.5C 426.692,697.577 426.192,695.577 426,693.5C 424.983,696.028 423.816,696.028 422.5,693.5C 421.833,694.833 421.167,696.167 420.5,697.5C 420.167,696.667 419.833,695.833 419.5,695C 421.616,691.817 422.616,688.317 422.5,684.5 Z"/></g>
<g><path style="opacity:1" fill="#3f5a46" d="M 115.5,694.5 C 118.022,697.733 119.689,701.399 120.5,705.5C 118.088,702.632 116.421,699.299 115.5,695.5C 115.5,695.167 115.5,694.833 115.5,694.5 Z"/></g>
<g><path style="opacity:1" fill="#3b5c4b" d="M 866.5,693.5 C 867.049,697.226 865.715,699.893 862.5,701.5C 862.896,698.279 864.229,695.612 866.5,693.5 Z"/></g>
<g><path style="opacity:1" fill="#395a3e" d="M 430.5,700.5 C 432.341,702.849 433.674,705.515 434.5,708.5C 431.625,706.751 430.292,704.085 430.5,700.5 Z"/></g>
<g><path style="opacity:1" fill="#f6df5e" d="M 41.5,699.5 C 42.5,699.5 43.5,699.5 44.5,699.5C 46.6663,704.613 48.333,709.947 49.5,715.5C 46.3388,710.511 43.6721,705.178 41.5,699.5 Z"/></g>
<g><path style="opacity:1" fill="#305352" d="M 862.5,701.5 C 863.042,705.259 861.708,707.926 858.5,709.5C 859.326,706.515 860.659,703.849 862.5,701.5 Z"/></g>
<g><path style="opacity:1" fill="#3b5d4b" d="M 120.5,705.5 C 122.847,707.527 124.181,710.194 124.5,713.5C 122.282,711.349 120.948,708.682 120.5,705.5 Z"/></g>
<g><path style="opacity:1" fill="#436046" d="M 448.5,691.5 C 446.521,698.466 443.688,705.132 440,711.5C 437.955,713.043 436.455,712.71 435.5,710.5C 436.688,711.684 437.855,711.684 439,710.5C 441.67,703.827 444.837,697.494 448.5,691.5 Z"/></g>
<g><path style="opacity:1" fill="#386049" d="M 858.5,709.5 C 858.5,710.833 858.5,712.167 858.5,713.5C 856.517,713.843 855.183,713.176 854.5,711.5C 855.117,711.611 855.617,711.944 856,712.5C 856.852,711.429 857.685,710.429 858.5,709.5 Z"/></g>
<g><path style="opacity:1" fill="#f8dc54" d="M 49.5,715.5 C 54.7161,719.359 57.3828,724.692 57.5,731.5C 54.4667,726.433 51.8,721.1 49.5,715.5 Z"/></g>
<g><path style="opacity:1" fill="#345543" d="M 125.5,715.5 C 127.913,716.68 128.913,718.68 128.5,721.5C 128.167,721.5 127.833,721.5 127.5,721.5C 126.833,719.5 126.167,717.5 125.5,715.5 Z"/></g>
<g><path style="opacity:1" fill="#3e5e3e" d="M 129.5,724.5 C 132.46,726.652 134.127,729.652 134.5,733.5C 133.833,733.167 133.167,732.833 132.5,732.5C 132.5,732.167 132.5,731.833 132.5,731.5C 131.758,729.02 130.758,726.687 129.5,724.5 Z"/></g>
<g><path style="opacity:1" fill="#d3c334" d="M 127.5,721.5 C 127.833,721.5 128.167,721.5 128.5,721.5C 129.11,722.391 129.443,723.391 129.5,724.5C 130.758,726.687 131.758,729.02 132.5,731.5C 129.429,729.019 127.763,725.686 127.5,721.5 Z"/></g>
<g><path style="opacity:1" fill="#3f6785" d="M 1161.5,730.5 C 1158.13,737.237 1154.8,743.903 1151.5,750.5C 1151.2,748.396 1151.53,746.396 1152.5,744.5C 1154.69,740.623 1156.19,736.623 1157,732.5C 1156.28,733.451 1155.45,733.617 1154.5,733C 1155.23,731.601 1155.73,730.101 1156,728.5C 1156.33,729.167 1156.67,729.833 1157,730.5C 1158.49,729.272 1159.99,729.272 1161.5,730.5 Z"/></g>
<g><path style="opacity:1" fill="#f5e05d" d="M 59.5,735.5 C 61.0174,735.511 62.1841,736.177 63,737.5C 63.4955,739.473 63.6621,741.473 63.5,743.5C 61.6567,741.147 60.3234,738.48 59.5,735.5 Z"/></g>
<g><path style="opacity:1" fill="#959a37" d="M 135.5,737.5 C 135.833,737.5 136.167,737.5 136.5,737.5C 137.11,738.391 137.443,739.391 137.5,740.5C 136.094,740.027 135.427,739.027 135.5,737.5 Z"/></g>
<g><path style="opacity:1" fill="#e9cf24" d="M 132.5,732.5 C 133.167,732.833 133.833,733.167 134.5,733.5C 134.833,734.833 135.167,736.167 135.5,737.5C 135.427,739.027 136.094,740.027 137.5,740.5C 140.088,745.344 142.421,750.344 144.5,755.5C 142.326,755.92 140.326,755.92 138.5,755.5C 139.167,753.833 139.833,752.167 140.5,750.5C 139.014,747.527 137.514,744.527 136,741.5C 135.282,742.451 134.449,742.617 133.5,742C 134.458,740.853 134.125,739.853 132.5,739C 132.986,736.973 132.986,734.807 132.5,732.5 Z"/></g>
<g><path style="opacity:1" fill="#2c5351" d="M 136.5,737.5 C 138.048,737.821 138.715,738.821 138.5,740.5C 139.5,740.5 140.5,740.5 141.5,740.5C 142.885,746.265 144.552,751.931 146.5,757.5C 146.167,757.5 145.833,757.5 145.5,757.5C 145.672,756.508 145.338,755.842 144.5,755.5C 142.421,750.344 140.088,745.344 137.5,740.5C 137.443,739.391 137.11,738.391 136.5,737.5 Z"/></g>
<g><path style="opacity:1" fill="#fbdf5b" d="M 65.5,747.5 C 68.1577,749.469 69.8244,752.135 70.5,755.5C 71.5,755.5 72.5,755.5 73.5,755.5C 73.5,758.167 73.5,760.833 73.5,763.5C 70.3255,758.484 67.6588,753.151 65.5,747.5 Z"/></g>
<g><path style="opacity:0.988" fill="#7791a1" d="M 1151.5,750.5 C 1150.21,754.052 1148.54,757.386 1146.5,760.5C 1146.61,756.284 1148.27,752.951 1151.5,750.5 Z"/></g>
<g><path style="opacity:1" fill="#93983e" d="M 145.5,757.5 C 145.833,757.5 146.167,757.5 146.5,757.5C 147.11,758.391 147.443,759.391 147.5,760.5C 146.094,760.027 145.427,759.027 145.5,757.5 Z"/></g>
<g><path style="opacity:1" fill="#576e34" d="M 147.5,761.5 C 149.822,762.802 151.155,764.802 151.5,767.5C 150.833,767.167 150.167,766.833 149.5,766.5C 148.833,764.833 148.167,763.167 147.5,761.5 Z"/></g>
<g><path style="opacity:1" fill="#f9e15e" d="M 73.5,763.5 C 74.5,763.5 75.5,763.5 76.5,763.5C 78.4527,767.177 79.4527,771.177 79.5,775.5C 76.9922,771.818 74.9922,767.818 73.5,763.5 Z"/></g>
<g><path style="opacity:1" fill="#26525a" d="M 152.5,769.5 C 153.931,769.881 154.764,770.881 155,772.5C 155.414,772.043 155.914,771.709 156.5,771.5C 157.141,773.296 158.141,774.796 159.5,776C 158.941,776.725 158.608,777.558 158.5,778.5C 159.894,780.646 160.56,782.979 160.5,785.5C 160.167,785.5 159.833,785.5 159.5,785.5C 158.173,782.529 156.84,779.529 155.5,776.5C 154.312,774.278 153.312,771.945 152.5,769.5 Z"/></g>
<g><path style="opacity:1" fill="#67889d" d="M 1142.5,768.5 C 1140.67,773.484 1138.34,778.151 1135.5,782.5C 1136.08,778.753 1137.08,775.086 1138.5,771.5C 1139.57,770.09 1140.9,769.09 1142.5,768.5 Z"/></g>
<g><path style="opacity:1" fill="#c8bd2e" d="M 149.5,766.5 C 150.167,766.833 150.833,767.167 151.5,767.5C 151.328,768.492 151.662,769.158 152.5,769.5C 153.312,771.945 154.312,774.278 155.5,776.5C 151.585,774.409 149.585,771.076 149.5,766.5 Z"/></g>
<g><path style="opacity:1" fill="#f8df52" d="M 85.5,787.5 C 82.9922,783.818 80.9922,779.818 79.5,775.5C 80.1499,775.196 80.8165,774.863 81.5,774.5C 82.6956,774.846 82.6956,775.346 81.5,776C 82.448,776.483 83.448,776.649 84.5,776.5C 84.423,780.215 84.7564,783.881 85.5,787.5 Z"/></g>
<g><path style="opacity:1" fill="#7c99ac" d="M 1135.5,782.5 C 1135.01,784.819 1134.01,786.819 1132.5,788.5C 1132.09,785.68 1133.09,783.68 1135.5,782.5 Z"/></g>
<g><path style="opacity:1" fill="#828e36" d="M 159.5,785.5 C 159.833,785.5 160.167,785.5 160.5,785.5C 161.11,786.391 161.443,787.391 161.5,788.5C 160.094,788.027 159.427,787.027 159.5,785.5 Z"/></g>
<g><path style="opacity:0.027" fill="#fff6aa" d="M 85.5,787.5 C 88.6745,792.516 91.3412,797.849 93.5,803.5C 89.7929,798.753 87.1263,793.419 85.5,787.5 Z"/></g>
<g><path style="opacity:1" fill="#859032" d="M 161.5,789.5 C 162.906,789.973 163.573,790.973 163.5,792.5C 162.094,792.027 161.427,791.027 161.5,789.5 Z"/></g>
<g><path style="opacity:1" fill="#507490" d="M 1130.5,792.5 C 1128.34,798.151 1125.67,803.484 1122.5,808.5C 1122.83,805.518 1122.83,802.685 1122.5,800C 1123.33,799.085 1124.33,798.419 1125.5,798C 1125.17,797.667 1124.83,797.333 1124.5,797C 1125.72,794.904 1126.55,795.071 1127,797.5C 1127.19,795.423 1127.69,793.423 1128.5,791.5C 1129.18,791.863 1129.85,792.196 1130.5,792.5 Z"/></g>
<g><path style="opacity:1" fill="#7f8c39" d="M 165.5,797.5 C 166.906,797.973 167.573,798.973 167.5,800.5C 166.094,800.027 165.427,799.027 165.5,797.5 Z"/></g>
<g><path style="opacity:1" fill="#405f42" d="M 167.5,800.5 C 169.759,801.344 170.759,803.011 170.5,805.5C 168.75,804.341 167.75,802.674 167.5,800.5 Z"/></g>
<g><path style="opacity:1" fill="#2e534e" d="M 170.5,806.5 C 171.735,806.721 172.735,807.388 173.5,808.5C 174.87,811.418 175.87,814.418 176.5,817.5C 176.167,817.5 175.833,817.5 175.5,817.5C 174.034,813.779 172.367,810.112 170.5,806.5 Z"/></g>
<g><path style="opacity:1" fill="#567b93" d="M 1119.5,814.5 C 1118.01,818.818 1116.01,822.818 1113.5,826.5C 1114.64,822.64 1115.31,818.64 1115.5,814.5C 1116.83,814.5 1118.17,814.5 1119.5,814.5 Z"/></g>
<g><path style="opacity:1" fill="#7d8935" d="M 175.5,817.5 C 175.833,817.5 176.167,817.5 176.5,817.5C 177.11,818.391 177.443,819.391 177.5,820.5C 176.094,820.027 175.427,819.027 175.5,817.5 Z"/></g>
<g><path style="opacity:1" fill="#7d872e" d="M 177.5,821.5 C 178.906,821.973 179.573,822.973 179.5,824.5C 178.094,824.027 177.427,823.027 177.5,821.5 Z"/></g>
<g><path style="opacity:1" fill="#22525f" d="M 176.5,817.5 C 178.945,819.086 180.445,821.419 181,824.5C 181.414,824.043 181.914,823.709 182.5,823.5C 183.354,824.522 184.354,825.355 185.5,826C 183.009,826.626 183.009,827.459 185.5,828.5C 184.691,830.071 184.357,831.738 184.5,833.5C 185.5,833.5 186.5,833.5 187.5,833.5C 187.167,836.5 188.5,837.833 191.5,837.5C 191.483,839.565 191.15,841.565 190.5,843.5C 189.5,842.833 188.5,842.167 187.5,841.5C 186.167,838.5 184.833,835.5 183.5,832.5C 183.573,830.973 182.906,829.973 181.5,829.5C 181.107,827.716 180.441,826.05 179.5,824.5C 179.573,822.973 178.906,821.973 177.5,821.5C 177.5,821.167 177.5,820.833 177.5,820.5C 177.443,819.391 177.11,818.391 176.5,817.5 Z"/></g>
<g><path style="opacity:1" fill="#49708c" d="M 1113.5,826.5 C 1111.86,831.123 1109.52,835.789 1106.5,840.5C 1106.47,836.721 1107.47,833.221 1109.5,830C 1109.1,828.527 1108.43,827.194 1107.5,826C 1108,825.5 1108.5,825 1109,824.5C 1109.67,825.833 1110.33,827.167 1111,828.5C 1111.42,827.244 1112.25,826.577 1113.5,826.5 Z"/></g>
<g><path style="opacity:1" fill="#758535" d="M 181.5,829.5 C 182.906,829.973 183.573,830.973 183.5,832.5C 182.094,832.027 181.427,831.027 181.5,829.5 Z"/></g>
<g><path style="opacity:1" fill="#f7db47" d="M 103.5,823.5 C 104.5,823.5 105.5,823.5 106.5,823.5C 109.478,830.295 112.644,836.961 116,843.5C 116.567,846.168 117.067,848.834 117.5,851.5C 112.325,842.484 107.659,833.151 103.5,823.5 Z"/></g>
<g><path style="opacity:1" fill="#859eaf" d="M 1106.5,840.5 C 1107.95,841.825 1107.62,842.658 1105.5,843C 1105.5,844 1105.5,845 1105.5,846C 1104.91,846.464 1104.24,846.631 1103.5,846.5C 1103.09,843.68 1104.09,841.68 1106.5,840.5 Z"/></g>
<g><path style="opacity:1" fill="#627535" d="M 187.5,841.5 C 188.5,842.167 189.5,842.833 190.5,843.5C 190.5,844.5 190.5,845.5 190.5,846.5C 189.11,845.101 188.11,843.434 187.5,841.5 Z"/></g>
<g><path style="opacity:0.004" fill="#f0faff" d="M 1103.5,847.5 C 1103.71,849.179 1103.05,850.179 1101.5,850.5C 1101.93,849.29 1102.6,848.29 1103.5,847.5 Z"/></g>
<g><path style="opacity:1" fill="#75802f" d="M 193.5,853.5 C 194.906,853.973 195.573,854.973 195.5,856.5C 194.094,856.027 193.427,855.027 193.5,853.5 Z"/></g>
<g><path style="opacity:1" fill="#4f758d" d="M 1100.5,852.5 C 1099.83,853.847 1099.83,855.014 1100.5,856C 1099.91,856.464 1099.24,856.631 1098.5,856.5C 1097.6,857.209 1097.26,858.209 1097.5,859.5C 1096.53,862.503 1094.87,865.503 1092.5,868.5C 1093.24,864.392 1094.57,860.559 1096.5,857C 1095.17,855.16 1095.33,854.66 1097,855.5C 1097.42,853.574 1098.59,852.574 1100.5,852.5 Z"/></g>
<g><path style="opacity:0.078" fill="#d1e7ef" d="M 1098.5,856.5 C 1099.81,857.895 1099.48,858.895 1097.5,859.5C 1097.26,858.209 1097.6,857.209 1098.5,856.5 Z"/></g>
<g><path style="opacity:1" fill="#6f812f" d="M 195.5,857.5 C 196.906,857.973 197.573,858.973 197.5,860.5C 196.094,860.027 195.427,859.027 195.5,857.5 Z"/></g>
<g><path style="opacity:1" fill="#f7dd51" d="M 123.5,864.5 C 125.143,864.48 126.476,865.147 127.5,866.5C 129.029,870.862 130.362,875.196 131.5,879.5C 132.5,879.5 133.5,879.5 134.5,879.5C 134.575,882.206 134.908,884.873 135.5,887.5C 131.277,880.057 127.277,872.39 123.5,864.5 Z"/></g>
<g><path style="opacity:1" fill="#48643f" d="M 199.5,865.5 C 203.472,868.921 205.805,873.255 206.5,878.5C 203.931,874.365 201.597,870.032 199.5,865.5 Z"/></g>
<g><path style="opacity:1" fill="#63772e" d="M 207.5,881.5 C 208.906,881.973 209.573,882.973 209.5,884.5C 208.094,884.027 207.427,883.027 207.5,881.5 Z"/></g>
<g><path style="opacity:1" fill="#405c3f" d="M 209.5,884.5 C 210.15,884.804 210.817,885.137 211.5,885.5C 212.38,888.613 213.38,891.613 214.5,894.5C 212.088,891.632 210.421,888.299 209.5,884.5 Z"/></g>
<g><path style="opacity:1" fill="#325746" d="M 215.5,896.5 C 216.15,896.804 216.817,897.137 217.5,897.5C 218.87,900.418 219.87,903.418 220.5,906.5C 218.312,903.457 216.645,900.124 215.5,896.5 Z"/></g>
<g><path style="opacity:1" fill="#365649" d="M 221.5,908.5 C 222.5,908.5 223.5,908.5 224.5,908.5C 225.373,912.52 226.373,916.52 227.5,920.5C 225.15,916.776 223.15,912.776 221.5,908.5 Z"/></g>
<g><path style="opacity:1" fill="#426b85" d="M 1071.5,910.5 C 1070.83,911.847 1070.83,913.014 1071.5,914C 1069.7,914.317 1069.37,914.984 1070.5,916C 1068.7,916.317 1068.37,916.984 1069.5,918C 1067.37,918.918 1066.7,920.251 1067.5,922C 1064.79,925.261 1062.45,928.761 1060.5,932.5C 1060.2,931.85 1059.86,931.183 1059.5,930.5C 1062.23,927.154 1063.9,923.321 1064.5,919C 1063.31,915.694 1064.65,914.194 1068.5,914.5C 1068.18,912.25 1068.68,910.25 1070,908.5C 1070.28,909.416 1070.78,910.082 1071.5,910.5 Z"/></g>
<g><path style="opacity:1" fill="#4d652f" d="M 227.5,921.5 C 229.727,922.401 230.727,924.067 230.5,926.5C 229.11,925.101 228.11,923.434 227.5,921.5 Z"/></g>
<g><path style="opacity:1" fill="#bec044" d="M 649.5,927.5 C 648.395,926.4 647.062,925.733 645.5,925.5C 645.517,923.972 646.184,923.472 647.5,924C 648.823,924.816 649.489,925.983 649.5,927.5 Z"/></g>
<g><path style="opacity:1" fill="#e8cd23" d="M 645.5,925.5 C 647.062,925.733 648.395,926.4 649.5,927.5C 649.5,927.833 649.5,928.167 649.5,928.5C 649.427,930.027 650.094,931.027 651.5,931.5C 652.847,934.193 654.18,936.86 655.5,939.5C 654.85,939.804 654.183,940.137 653.5,940.5C 651.917,938.01 650.917,935.343 650.5,932.5C 647.52,932.759 645.687,931.426 645,928.5C 644.51,929.793 644.343,931.127 644.5,932.5C 643.5,932.5 642.5,932.5 641.5,932.5C 641.557,931.391 641.89,930.391 642.5,929.5C 643.143,927.924 644.143,926.59 645.5,925.5 Z"/></g>
<g><path style="opacity:1" fill="#8d9637" d="M 649.5,928.5 C 650.906,928.973 651.573,929.973 651.5,931.5C 650.094,931.027 649.427,930.027 649.5,928.5 Z"/></g>
<g><path style="opacity:1" fill="#f6dc4a" d="M 135.5,888.5 C 136.5,888.5 137.5,888.5 138.5,888.5C 141.19,893.219 143.356,898.219 145,903.5C 149.844,910.859 153.344,918.859 155.5,927.5C 156.5,927.5 157.5,927.5 158.5,927.5C 159.872,932.643 161.705,937.643 164,942.5C 164.75,943.126 165.584,943.626 166.5,944C 165.663,945.011 165.33,946.178 165.5,947.5C 155.292,928.086 145.292,908.419 135.5,888.5 Z"/></g>
<g><path style="opacity:1" fill="#30554c" d="M 642.5,929.5 C 641.89,930.391 641.557,931.391 641.5,932.5C 639.228,936.711 637.228,941.045 635.5,945.5C 634.121,948.307 632.454,950.974 630.5,953.5C 630.201,951.396 630.534,949.396 631.5,947.5C 635.052,942.621 637.719,937.288 639.5,931.5C 640.265,930.388 641.265,929.721 642.5,929.5 Z"/></g>
<g><path style="opacity:1" fill="#7f8d33" d="M 235.5,938.5 C 237.262,939.262 238.262,940.596 238.5,942.5C 236.738,941.738 235.738,940.404 235.5,938.5 Z"/></g>
<g><path style="opacity:1" fill="#fcd405" d="M 655.5,939.5 C 656.541,942.391 657.874,945.058 659.5,947.5C 660.279,950.545 661.613,953.211 663.5,955.5C 663.5,955.833 663.5,956.167 663.5,956.5C 663.427,958.027 664.094,959.027 665.5,959.5C 665.5,959.833 665.5,960.167 665.5,960.5C 665.427,962.027 666.094,963.027 667.5,963.5C 667.5,963.833 667.5,964.167 667.5,964.5C 667.427,966.027 668.094,967.027 669.5,967.5C 669.427,969.027 670.094,970.027 671.5,970.5C 671.5,970.833 671.5,971.167 671.5,971.5C 672.279,974.545 673.613,977.211 675.5,979.5C 677.008,983.849 679.008,987.849 681.5,991.5C 681.5,991.833 681.5,992.167 681.5,992.5C 681.427,994.027 682.094,995.027 683.5,995.5C 685.074,1000.32 687.407,1004.65 690.5,1008.5C 691.861,1012.57 694.195,1015.9 697.5,1018.5C 697.5,1018.83 697.5,1019.17 697.5,1019.5C 698.6,1020.6 699.267,1021.94 699.5,1023.5C 702.5,1028.5 706.5,1032.5 711.5,1035.5C 713.246,1037.25 715.246,1038.58 717.5,1039.5C 720.678,1043.34 724.678,1046 729.5,1047.5C 731.001,1049.37 733.001,1050.7 735.5,1051.5C 735.414,1052.5 735.748,1053.33 736.5,1054C 742.992,1056.58 749.659,1058.58 756.5,1060C 736.833,1060.67 717.167,1060.67 697.5,1060C 695.167,1059 692.833,1058 690.5,1057C 692.595,1056.44 692.762,1055.94 691,1055.5C 688.433,1056.58 685.767,1057.24 683,1057.5C 678.833,1056.77 674.667,1056.1 670.5,1055.5C 652.863,1049.86 638.196,1039.86 626.5,1025.5C 626.5,1023.83 626.5,1022.17 626.5,1020.5C 625.325,1020.72 624.325,1020.39 623.5,1019.5C 622.787,1016.12 620.787,1014.12 617.5,1013.5C 617.5,1013.17 617.5,1012.83 617.5,1012.5C 617.611,1011.88 617.944,1011.38 618.5,1011C 615.404,1007.48 613.071,1003.48 611.5,999C 612.566,995.906 613.232,992.74 613.5,989.5C 613.5,989.167 613.5,988.833 613.5,988.5C 614.906,988.027 615.573,987.027 615.5,985.5C 615.5,984.833 615.5,984.167 615.5,983.5C 616.906,983.027 617.573,982.027 617.5,980.5C 618.906,980.027 619.573,979.027 619.5,977.5C 620.167,976.167 620.833,974.833 621.5,973.5C 625.39,971.896 627.056,968.896 626.5,964.5C 627.552,964.351 628.552,964.517 629.5,965C 628.72,966.073 628.887,967.24 630,968.5C 630.333,968.167 630.667,967.833 631,967.5C 631.326,964.668 630.826,962.001 629.5,959.5C 632.276,959.911 632.943,959.078 631.5,957C 633.423,953.361 634.756,949.527 635.5,945.5C 637.228,941.045 639.228,936.711 641.5,932.5C 642.5,932.5 643.5,932.5 644.5,932.5C 644.343,931.127 644.51,929.793 645,928.5C 645.687,931.426 647.52,932.759 650.5,932.5C 650.917,935.343 651.917,938.01 653.5,940.5C 654.183,940.137 654.85,939.804 655.5,939.5 Z"/></g>
<g><path style="opacity:1" fill="#677c36" d="M 655.5,939.5 C 658.012,941.465 659.345,944.132 659.5,947.5C 657.874,945.058 656.541,942.391 655.5,939.5 Z"/></g>
<g><path style="opacity:1" fill="#dfca28" d="M 232.5,931.5 C 233.912,933.604 234.912,935.937 235.5,938.5C 235.738,940.404 236.738,941.738 238.5,942.5C 239.11,943.391 239.443,944.391 239.5,945.5C 239.427,947.027 240.094,948.027 241.5,948.5C 242.441,950.05 243.107,951.716 243.5,953.5C 243.427,955.027 244.094,956.027 245.5,956.5C 246.167,958.167 246.833,959.833 247.5,961.5C 243.631,958.434 241.298,954.434 240.5,949.5C 239.5,949.5 238.5,949.5 237.5,949.5C 237.671,947.007 236.671,945.174 234.5,944C 234.833,943.667 235.167,943.333 235.5,943C 234.656,939.077 233.656,935.243 232.5,931.5 Z"/></g>
<g><path style="opacity:1" fill="#556d2f" d="M 239.5,945.5 C 240.906,945.973 241.573,946.973 241.5,948.5C 240.094,948.027 239.427,947.027 239.5,945.5 Z"/></g>
<g><path style="opacity:1" fill="#4e6839" d="M 659.5,947.5 C 662.129,949.381 663.463,952.047 663.5,955.5C 661.613,953.211 660.279,950.545 659.5,947.5 Z"/></g>
<g><path style="opacity:1" fill="#516d23" d="M 243.5,953.5 C 244.906,953.973 245.573,954.973 245.5,956.5C 244.094,956.027 243.427,955.027 243.5,953.5 Z"/></g>
<g><path style="opacity:1" fill="#31574d" d="M 630.5,953.5 C 630.104,956.721 628.771,959.388 626.5,961.5C 626.338,959.473 626.505,957.473 627,955.5C 627.816,954.177 628.983,953.511 630.5,953.5 Z"/></g>
<g><path style="opacity:1" fill="#828a34" d="M 663.5,956.5 C 664.906,956.973 665.573,957.973 665.5,959.5C 664.094,959.027 663.427,958.027 663.5,956.5 Z"/></g>
<g><path style="opacity:1" fill="#f8de57" d="M 165.5,948.5 C 168.218,952.742 171.218,956.908 174.5,961C 175.322,963.434 175.656,965.934 175.5,968.5C 171.657,962.146 168.323,955.48 165.5,948.5 Z"/></g>
<g><path style="opacity:1" fill="#597240" d="M 247.5,961.5 C 250.129,963.381 251.463,966.047 251.5,969.5C 249.613,967.211 248.279,964.545 247.5,961.5 Z"/></g>
<g><path style="opacity:1" fill="#7b8c38" d="M 665.5,960.5 C 666.906,960.973 667.573,961.973 667.5,963.5C 666.094,963.027 665.427,962.027 665.5,960.5 Z"/></g>
<g><path style="opacity:1" fill="#295352" d="M 626.5,961.5 C 626.104,964.721 624.771,967.388 622.5,969.5C 621.951,965.774 623.285,963.107 626.5,961.5 Z"/></g>
<g><path style="opacity:1" fill="#788732" d="M 667.5,964.5 C 668.906,964.973 669.573,965.973 669.5,967.5C 668.094,967.027 667.427,966.027 667.5,964.5 Z"/></g>
<g><path style="opacity:1" fill="#e4cd29" d="M 635.5,945.5 C 634.756,949.527 633.423,953.361 631.5,957C 632.943,959.078 632.276,959.911 629.5,959.5C 630.826,962.001 631.326,964.668 631,967.5C 630.667,967.833 630.333,968.167 630,968.5C 628.887,967.24 628.72,966.073 629.5,965C 628.552,964.517 627.552,964.351 626.5,964.5C 627.056,968.896 625.39,971.896 621.5,973.5C 621.833,972.167 622.167,970.833 622.5,969.5C 624.771,967.388 626.104,964.721 626.5,961.5C 628.771,959.388 630.104,956.721 630.5,953.5C 632.454,950.974 634.121,948.307 635.5,945.5 Z"/></g>
<g><path style="opacity:1" fill="#3c6034" d="M 669.5,967.5 C 670.906,967.973 671.573,968.973 671.5,970.5C 670.094,970.027 669.427,969.027 669.5,967.5 Z"/></g>
<g><path style="opacity:1" fill="#4c6a34" d="M 671.5,971.5 C 673.727,972.401 674.727,974.067 674.5,976.5C 675.11,977.391 675.443,978.391 675.5,979.5C 673.613,977.211 672.279,974.545 671.5,971.5 Z"/></g>
<g><path style="opacity:1" fill="#bbb436" d="M 251.5,970.5 C 254.241,973.686 256.241,977.353 257.5,981.5C 253.767,978.853 251.767,975.187 251.5,970.5 Z"/></g>
<g><path style="opacity:1" fill="#798638" d="M 619.5,977.5 C 619.573,979.027 618.906,980.027 617.5,980.5C 617.427,978.973 618.094,977.973 619.5,977.5 Z"/></g>
<g><path style="opacity:1" fill="#395a2f" d="M 617.5,980.5 C 617.573,982.027 616.906,983.027 615.5,983.5C 615.427,981.973 616.094,980.973 617.5,980.5 Z"/></g>
<g><path style="opacity:1" fill="#8d9334" d="M 257.5,982.5 C 258.906,982.973 259.573,983.973 259.5,985.5C 258.094,985.027 257.427,984.027 257.5,982.5 Z"/></g>
<g><path style="opacity:1" fill="#3e5d43" d="M 674.5,976.5 C 678.12,980.747 680.453,985.747 681.5,991.5C 679.008,987.849 677.008,983.849 675.5,979.5C 675.443,978.391 675.11,977.391 674.5,976.5 Z"/></g>
<g><path style="opacity:1" fill="#70822d" d="M 615.5,985.5 C 615.573,987.027 614.906,988.027 613.5,988.5C 613.427,986.973 614.094,985.973 615.5,985.5 Z"/></g>
<g><path style="opacity:0.514" fill="#fae97f" d="M 181.5,981.5 C 182.735,981.721 183.735,982.388 184.5,983.5C 185.798,986.422 186.798,989.422 187.5,992.5C 185.262,989.028 183.262,985.362 181.5,981.5 Z"/></g>
<g><path style="opacity:1" fill="#4c7189" d="M 1037.5,979.5 C 1034.34,987.151 1030.67,994.484 1026.5,1001.5C 1025.85,999.565 1025.52,997.565 1025.5,995.5C 1026.5,995.5 1027.5,995.5 1028.5,995.5C 1028.43,992.915 1027.93,990.582 1027,988.5C 1027.69,989.357 1028.52,990.023 1029.5,990.5C 1031.4,989.065 1031.73,987.398 1030.5,985.5C 1032.98,983.598 1035.31,981.598 1037.5,979.5 Z"/></g>
<g><path style="opacity:1" fill="#395b49" d="M 259.5,985.5 C 261.622,988.032 263.622,990.699 265.5,993.5C 266.452,995.045 266.785,996.712 266.5,998.5C 266.167,998.5 265.833,998.5 265.5,998.5C 265.5,998.167 265.5,997.833 265.5,997.5C 265.573,995.973 264.906,994.973 263.5,994.5C 261.787,991.706 260.454,988.706 259.5,985.5 Z"/></g>
<g><path style="opacity:1" fill="#697e2d" d="M 681.5,992.5 C 681.833,992.5 682.167,992.5 682.5,992.5C 683.11,993.391 683.443,994.391 683.5,995.5C 682.094,995.027 681.427,994.027 681.5,992.5 Z"/></g>
<g><path style="opacity:1" fill="#889537" d="M 263.5,994.5 C 264.906,994.973 265.573,995.973 265.5,997.5C 265.167,997.5 264.833,997.5 264.5,997.5C 263.89,996.609 263.557,995.609 263.5,994.5 Z"/></g>
<g><path style="opacity:1" fill="#365749" d="M 682.5,992.5 C 686.181,997.195 688.848,1002.53 690.5,1008.5C 687.407,1004.65 685.074,1000.32 683.5,995.5C 683.443,994.391 683.11,993.391 682.5,992.5 Z"/></g>
<g><path style="opacity:1" fill="#8c943e" d="M 265.5,998.5 C 265.833,998.5 266.167,998.5 266.5,998.5C 267.11,999.391 267.443,1000.39 267.5,1001.5C 266.094,1001.03 265.427,1000.03 265.5,998.5 Z"/></g>
<g><path style="opacity:1" fill="#f7e061" d="M 191.5,1001.5 C 193.1,1002.25 194.6,1003.25 196,1004.5C 198.005,1009.84 200.505,1014.84 203.5,1019.5C 199.017,1013.88 195.017,1007.88 191.5,1001.5 Z"/></g>
<g><path style="opacity:1" fill="#f2da4f" d="M 613.5,989.5 C 613.232,992.74 612.566,995.906 611.5,999C 613.071,1003.48 615.404,1007.48 618.5,1011C 617.944,1011.38 617.611,1011.88 617.5,1012.5C 614.082,1008.67 611.416,1004.34 609.5,999.5C 609.629,997.784 609.962,996.117 610.5,994.5C 611.313,992.739 612.313,991.072 613.5,989.5 Z"/></g>
<g><path style="opacity:1" fill="#dec927" d="M 264.5,997.5 C 264.833,997.5 265.167,997.5 265.5,997.5C 265.5,997.833 265.5,998.167 265.5,998.5C 265.427,1000.03 266.094,1001.03 267.5,1001.5C 268.803,1004.44 270.47,1007.1 272.5,1009.5C 273.11,1010.39 273.443,1011.39 273.5,1012.5C 271.97,1011.93 270.47,1011.27 269,1010.5C 267.929,1005.9 266.429,1001.56 264.5,997.5 Z"/></g>
<g><path style="opacity:1" fill="#f6dc52" d="M 617.5,1013.5 C 620.787,1014.12 622.787,1016.12 623.5,1019.5C 624.325,1020.39 625.325,1020.72 626.5,1020.5C 626.5,1022.17 626.5,1023.83 626.5,1025.5C 623.025,1021.9 620.025,1017.9 617.5,1013.5 Z"/></g>
<g><path style="opacity:1" fill="#375a48" d="M 690.5,1008.5 C 691.735,1008.72 692.735,1009.39 693.5,1010.5C 694.892,1013.2 696.225,1015.87 697.5,1018.5C 694.195,1015.9 691.861,1012.57 690.5,1008.5 Z"/></g>
<g><path style="opacity:1" fill="#285455" d="M 272.5,1009.5 C 274.088,1010.64 275.421,1012.14 276.5,1014C 278.167,1014.33 279.833,1014.67 281.5,1015C 280.351,1017.46 280.351,1019.96 281.5,1022.5C 278.484,1019.48 275.817,1016.15 273.5,1012.5C 273.443,1011.39 273.11,1010.39 272.5,1009.5 Z"/></g>
<g><path style="opacity:1" fill="#30607e" d="M 1026.5,1001.5 C 1022.65,1010.54 1017.32,1018.54 1010.5,1025.5C 1010.32,1021.92 1010.98,1018.59 1012.5,1015.5C 1011.5,1015.5 1010.5,1015.5 1009.5,1015.5C 1009.5,1014.17 1009.5,1012.83 1009.5,1011.5C 1010.83,1011.5 1012.17,1011.5 1013.5,1011.5C 1013.21,1013.29 1013.55,1014.95 1014.5,1016.5C 1015.86,1013.47 1015.52,1010.64 1013.5,1008C 1015,1009.24 1016.67,1009.74 1018.5,1009.5C 1019.7,1009.15 1019.7,1008.65 1018.5,1008C 1019.79,1007.51 1021.13,1007.34 1022.5,1007.5C 1021.89,1004.03 1023.22,1002.03 1026.5,1001.5 Z"/></g>
<g><path style="opacity:1" fill="#466d86" d="M 610.5,994.5 C 609.962,996.117 609.629,997.784 609.5,999.5C 605.007,1008.65 599.34,1016.99 592.5,1024.5C 591.887,1021.03 593.221,1019.03 596.5,1018.5C 596.215,1016.71 596.548,1015.05 597.5,1013.5C 601.412,1006.91 605.745,1000.58 610.5,994.5 Z"/></g>
<g><path style="opacity:1" fill="#3f5a37" d="M 697.5,1019.5 C 700.086,1020.64 701.753,1022.64 702.5,1025.5C 701.5,1024.83 700.5,1024.17 699.5,1023.5C 699.267,1021.94 698.6,1020.6 697.5,1019.5 Z"/></g>
<g><path style="opacity:1" fill="#c3c03c" d="M 699.5,1023.5 C 700.5,1024.17 701.5,1024.83 702.5,1025.5C 704.833,1028.5 707.5,1031.17 710.5,1033.5C 710.833,1034.17 711.167,1034.83 711.5,1035.5C 706.5,1032.5 702.5,1028.5 699.5,1023.5 Z"/></g>
<g><path style="opacity:1" fill="#355340" d="M 281.5,1022.5 C 284.086,1023.64 285.753,1025.64 286.5,1028.5C 284.367,1026.91 282.701,1024.91 281.5,1022.5 Z"/></g>
<g><path style="opacity:0.004" fill="#f2fbff" d="M 1006.5,1030.5 C 1006.5,1031.83 1005.83,1032.5 1004.5,1032.5C 1004.83,1031.5 1005.5,1030.83 1006.5,1030.5 Z"/></g>
<g><path style="opacity:1" fill="#335939" d="M 710.5,1033.5 C 713.427,1034.76 715.761,1036.76 717.5,1039.5C 715.246,1038.58 713.246,1037.25 711.5,1035.5C 711.167,1034.83 710.833,1034.17 710.5,1033.5 Z"/></g>
<g><path style="opacity:1" fill="#4f768d" d="M 1004.5,1032.5 C 1000.13,1037.2 995.126,1041.2 989.5,1044.5C 989.5,1041.17 991.167,1039.5 994.5,1039.5C 994.5,1038.17 994.5,1036.83 994.5,1035.5C 996.527,1035.66 998.527,1035.5 1000.5,1035C 1000.17,1034.67 999.833,1034.33 999.5,1034C 1001.25,1033.65 1002.91,1033.15 1004.5,1032.5 Z"/></g>
<g><path style="opacity:1" fill="#f7db55" d="M 215.5,1033.5 C 218.039,1034.85 220.706,1036.02 223.5,1037C 223.167,1037.33 222.833,1037.67 222.5,1038C 223.71,1039.04 224.71,1040.21 225.5,1041.5C 221.428,1039.79 218.095,1037.13 215.5,1033.5 Z"/></g>
<g><path style="opacity:0.004" fill="#f0f9fc" d="M 583.5,1034.5 C 583.5,1036.5 582.5,1037.5 580.5,1037.5C 581.167,1036.17 582.167,1035.17 583.5,1034.5 Z"/></g>
<g><path style="opacity:1" fill="#46613a" d="M 292.5,1034.5 C 295.089,1035.42 297.089,1037.09 298.5,1039.5C 295.911,1038.58 293.911,1036.91 292.5,1034.5 Z"/></g>
<g><path style="opacity:1" fill="#26525f" d="M 717.5,1039.5 C 719.179,1039.89 720.846,1040.39 722.5,1041C 723.69,1044.51 725.69,1045.18 728.5,1043C 725.592,1040.03 725.925,1039.19 729.5,1040.5C 730.025,1041.19 730.692,1041.69 731.5,1042C 729.845,1043.44 729.178,1045.28 729.5,1047.5C 724.678,1046 720.678,1043.34 717.5,1039.5 Z"/></g>
<g><path style="opacity:1" fill="#425f2c" d="M 305.5,1044.5 C 307.027,1044.43 308.027,1045.09 308.5,1046.5C 306.973,1046.57 305.973,1045.91 305.5,1044.5 Z"/></g>
<g><path style="opacity:1" fill="#5d7d94" d="M 570.5,1044.5 C 568.371,1046.95 565.704,1048.62 562.5,1049.5C 563.301,1047.96 563.634,1046.29 563.5,1044.5C 565.833,1044.5 568.167,1044.5 570.5,1044.5 Z"/></g>
<g><path style="opacity:1" fill="#55672f" d="M 308.5,1046.5 C 309.167,1046.5 309.833,1046.5 310.5,1046.5C 310.833,1047.17 311.167,1047.83 311.5,1048.5C 309.973,1048.57 308.973,1047.91 308.5,1046.5 Z"/></g>
<g><path style="opacity:1" fill="#335752" d="M 742.5,1053.5 C 739.921,1053.61 737.588,1052.94 735.5,1051.5C 733.001,1050.7 731.001,1049.37 729.5,1047.5C 732.813,1045.81 734.813,1046.81 735.5,1050.5C 738.481,1050.18 740.815,1051.18 742.5,1053.5 Z"/></g>
<g><path style="opacity:1" fill="#215361" d="M 310.5,1046.5 C 312.435,1047.15 314.435,1047.48 316.5,1047.5C 316.5,1048.5 316.5,1049.5 316.5,1050.5C 317.5,1050.5 318.5,1050.5 319.5,1050.5C 319.5,1049.5 319.5,1048.5 319.5,1047.5C 320.978,1047.24 322.311,1047.57 323.5,1048.5C 322.637,1049.73 322.637,1051.06 323.5,1052.5C 322.167,1052.5 320.833,1052.5 319.5,1052.5C 316.515,1051.67 313.849,1050.34 311.5,1048.5C 311.167,1047.83 310.833,1047.17 310.5,1046.5 Z"/></g>
<g><path style="opacity:1" fill="#3c6680" d="M 989.5,1044.5 C 981.151,1050.74 971.818,1055.07 961.5,1057.5C 960.833,1057.5 960.167,1057.5 959.5,1057.5C 961.416,1055.02 964.083,1054.02 967.5,1054.5C 967.5,1052.83 967.5,1051.17 967.5,1049.5C 971.375,1049.64 975.208,1049.31 979,1048.5C 982.133,1046.18 985.633,1044.85 989.5,1044.5 Z"/></g>
<g><path style="opacity:0.027" fill="#fff9ac" d="M 237.5,1049.5 C 239.027,1049.43 240.027,1050.09 240.5,1051.5C 238.973,1051.57 237.973,1050.91 237.5,1049.5 Z"/></g>
<g><path style="opacity:1" fill="#f6db51" d="M 241.5,1051.5 C 244.839,1051.89 248.173,1052.39 251.5,1053C 254.868,1055.58 258.535,1057.41 262.5,1058.5C 254.961,1057.55 247.961,1055.22 241.5,1051.5 Z"/></g>
<g><path style="opacity:1" fill="#3f5d35" d="M 319.5,1052.5 C 320.833,1052.5 322.167,1052.5 323.5,1052.5C 325.076,1053.14 326.41,1054.14 327.5,1055.5C 324.603,1054.87 321.936,1053.87 319.5,1052.5 Z"/></g>
<g><path style="opacity:1" fill="#3c5a44" d="M 742.5,1053.5 C 744.801,1054.06 747.134,1054.56 749.5,1055C 750.056,1055.38 750.389,1055.88 750.5,1056.5C 747.284,1056.65 744.617,1055.65 742.5,1053.5 Z"/></g>
<g><path style="opacity:1" fill="#f2d231" d="M 735.5,1051.5 C 737.588,1052.94 739.921,1053.61 742.5,1053.5C 744.617,1055.65 747.284,1056.65 750.5,1056.5C 752.905,1057.77 755.572,1058.43 758.5,1058.5C 760.374,1059.29 762.374,1059.95 764.5,1060.5C 743.673,1061.5 722.673,1061.83 701.5,1061.5C 699.833,1061.5 698.167,1061.5 696.5,1061.5C 693.155,1059.78 689.489,1059.12 685.5,1059.5C 680.112,1059.24 675.112,1057.9 670.5,1055.5C 674.667,1056.1 678.833,1056.77 683,1057.5C 685.767,1057.24 688.433,1056.58 691,1055.5C 692.762,1055.94 692.595,1056.44 690.5,1057C 692.833,1058 695.167,1059 697.5,1060C 717.167,1060.67 736.833,1060.67 756.5,1060C 749.659,1058.58 742.992,1056.58 736.5,1054C 735.748,1053.33 735.414,1052.5 735.5,1051.5 Z"/></g>
<g><path style="opacity:1" fill="#3f5d3d" d="M 327.5,1056.5 C 327.5,1056.17 327.5,1055.83 327.5,1055.5C 334.328,1056.68 340.995,1058.02 347.5,1059.5C 346.167,1059.5 344.833,1059.5 343.5,1059.5C 338.194,1058.52 332.861,1057.52 327.5,1056.5 Z"/></g>
<g><path style="opacity:1" fill="#7791a4" d="M 959.5,1057.5 C 960.167,1057.5 960.833,1057.5 961.5,1057.5C 957.687,1058.79 953.687,1059.79 949.5,1060.5C 950.058,1059.21 951.058,1058.38 952.5,1058C 954.81,1057.5 957.143,1057.34 959.5,1057.5 Z"/></g>
<g><path style="opacity:1" fill="#f5e476" d="M 685.5,1059.5 C 689.489,1059.12 693.155,1059.78 696.5,1061.5C 695.883,1061.61 695.383,1061.94 695,1062.5C 691.755,1061.43 688.589,1060.43 685.5,1059.5 Z"/></g>
<g><path style="opacity:1" fill="#3c6144" d="M 758.5,1058.5 C 762.897,1058.42 767.23,1058.92 771.5,1060C 772.056,1060.38 772.389,1060.88 772.5,1061.5C 770.833,1061.5 769.167,1061.5 767.5,1061.5C 766.791,1060.6 765.791,1060.26 764.5,1060.5C 762.374,1059.95 760.374,1059.29 758.5,1058.5 Z"/></g>
<g><path style="opacity:1" fill="#f4d22d" d="M 327.5,1056.5 C 332.861,1057.52 338.194,1058.52 343.5,1059.5C 344.5,1060.17 345.5,1060.83 346.5,1061.5C 325.5,1061.5 304.5,1061.5 283.5,1061.5C 278.875,1061.24 274.375,1061.24 270,1061.5C 267.433,1060.41 264.933,1059.41 262.5,1058.5C 268.593,1058.14 274.593,1058.64 280.5,1060C 297.5,1060.67 314.5,1060.67 331.5,1060C 329.907,1059.05 328.574,1057.88 327.5,1056.5 Z"/></g>
<g><path style="opacity:0.718" fill="#94a360" d="M 343.5,1059.5 C 344.833,1059.5 346.167,1059.5 347.5,1059.5C 348.833,1060.17 350.167,1060.83 351.5,1061.5C 349.833,1061.5 348.167,1061.5 346.5,1061.5C 345.5,1060.83 344.5,1060.17 343.5,1059.5 Z"/></g>
<g><path style="opacity:0.22" fill="#c8e1ec" d="M 523.5,1061.5 C 524.209,1060.6 525.209,1060.26 526.5,1060.5C 526.631,1061.24 526.464,1061.91 526,1062.5C 525.329,1061.75 524.496,1061.41 523.5,1061.5 Z"/></g>
<g><path style="opacity:0.322" fill="#b7cac9" d="M 283.5,1061.5 C 304.5,1061.5 325.5,1061.5 346.5,1061.5C 348.167,1061.5 349.833,1061.5 351.5,1061.5C 406.5,1061.5 461.5,1061.5 516.5,1061.5C 491.431,1062.17 466.264,1062.84 441,1063.5C 388.402,1062.84 335.902,1062.17 283.5,1061.5 Z"/></g>
<g><path style="opacity:0.314" fill="#fcf2a4" d="M 764.5,1060.5 C 765.791,1060.26 766.791,1060.6 767.5,1061.5C 766.508,1061.33 765.842,1061.66 765.5,1062.5C 743.993,1062.83 722.66,1062.5 701.5,1061.5C 722.673,1061.83 743.673,1061.5 764.5,1060.5 Z"/></g>
<g><path style="opacity:0.325" fill="#b1c6cb" d="M 765.5,1062.5 C 765.842,1061.66 766.508,1061.33 767.5,1061.5C 769.167,1061.5 770.833,1061.5 772.5,1061.5C 826.833,1061.5 881.167,1061.5 935.5,1061.5C 910.431,1062.17 885.264,1062.84 860,1063.5C 828.573,1062.5 797.073,1062.17 765.5,1062.5 Z"/></g>
</svg>
